<svg xmlns="http://www.w3.org/2000/svg" viewBox="0 0 24 24" height="24" width="24" class="t2-icon t2-icon-logo" aria-hidden="true" focusable="false"><path fill="white" d="M 4.9 7.8 C 5.5 7.8 6 7.3 6 6.7 C 6 6.1 5.5 5.7 4.9 5.7 C 4.3 5.7 3.8 6.2 3.8 6.8 C 3.8 7.3 4.3 7.8 4.9 7.8 Z M 15.7 23.7 C 16.3 23.7 16.8 23.2 16.8 22.6 C 16.8 22 16.3 21.5 15.7 21.5 C 15.1 21.5 14.6 22 14.6 22.6 C 14.6 23.3 15.1 23.7 15.7 23.7 Z M 7.6 0.3 L 7.6 20.1 L 20.2 20.1 L 20.2 0.3 L 7.6 0.3 Z M 10.3 7.8 C 9.7 7.8 9.2 7.3 9.2 6.7 C 9.2 6.1 9.7 5.6 10.3 5.6 C 10.9 5.6 11.4 6.1 11.4 6.7 C 11.4 7.3 10.9 7.8 10.3 7.8 Z M 15.6 18.4 C 15 18.4 14.5 17.9 14.5 17.3 C 14.5 16.7 15 16.2 15.6 16.2 C 16.2 16.2 16.7 16.7 16.7 17.3 C 16.7 17.9 16.2 18.4 15.6 18.4 Z M 15.6 13.1 C 15 13.1 14.5 12.6 14.5 12 C 14.5 11.4 15 10.9 15.6 10.9 C 16.2 10.9 16.7 11.4 16.7 12 C 16.7 12.6 16.2 13.1 15.6 13.1 Z M 15.6 7.8 C 15 7.8 14.5 7.3 14.5 6.7 C 14.5 6.1 15 5.6 15.6 5.6 C 16.2 5.6 16.7 6.1 16.7 6.7 C 16.7 7.3 16.2 7.8 15.6 7.8 Z"></path></svg>