<svg xmlns="http://www.w3.org/2000/svg" xmlns:xlink="http://www.w3.org/1999/xlink" width="2160" height="1143.99995" viewBox="0 0 571.5 302.68332">
  <defs>
    <path id="a" d="m5.77 0-8.65 5V-5l8.65 5z" style="fill-rule:evenodd;stroke:#000;stroke-width:1pt;stroke-opacity:1;fill:#000;fill-opacity:1"/>
    <path id="b" d="m5.77 0-8.65 5V-5Z" style="fill:#000;fill-opacity:1;fill-rule:evenodd;stroke:#000;stroke-width:1pt;stroke-opacity:1"/>
    <path id="l" d="M205.93894 52.93821h2.42293q.81959 0 1.24954.1254.57774.17019.98977.60462.41204.43442.62701 1.0659.21497.62701.21497 1.54961 0 .81063-.20153 1.39733-.24633.71658-.70315 1.15997-.34485.3359-.93155.524-.43891.13883-1.1734.13883h-2.49459zm1.32567 1.1107v4.34874h.98977q.55535 0 .80168-.0627.32246-.0806.53295-.2732.21498-.19258.34934-.63148.13436-.44338.13436-1.20475t-.13436-1.16892q-.13436-.40756-.37621-.63596-.24184-.22841-.61357-.30903-.27767-.0627-1.0883-.0627zm8.04808 3.94119 1.25402.2105q-.24185.6897-.76585 1.05247-.51952.35829-1.30327.35829-1.24058 0-1.83624-.81063-.47026-.6494-.47026-1.63918 0-1.18236.61805-1.84967.61805-.6718 1.56304-.6718 1.06144 0 1.67501.70315.61357.69867.5867 2.14526h-3.15295q.0134.55983.30454.87333.29111.30903.72554.30903.29559 0 .49713-.16123t.30454-.51952zm.0717-1.27193q-.0134-.5464-.28215-.82855-.26872-.28663-.65388-.28663-.41203 0-.68075.30007-.26872.30007-.26424.8151zm1.83172 1.42868 1.26297-.19258q.0806.36725.32694.55983.24633.1881.68971.1881.48817 0 .73449-.17915.16571-.1254.16571-.3359 0-.1433-.0896-.23736-.0941-.08957-.42099-.1657-1.52273-.3359-1.93029-.61358-.5643-.38516-.5643-1.0704 0-.61804.48817-1.03903.48817-.421 1.51377-.421.97634 0 1.45107.31799.47474.31798.65388.94051l-1.18683.21945q-.0761-.27767-.29111-.42547-.2105-.1478-.60462-.1478-.49712 0-.7121.13885-.14331.09853-.14331.25528 0 .13436.1254.2284.17019.1254 1.1734.35382 1.00769.2284 1.40629.55983.39411.3359.39411.93603 0 .65388-.54639 1.12413-.54639.47026-1.61678.47026-.97186 0-1.54065-.39412-.5643-.39412-.73897-1.0704zm9.69174-1.99299-1.24058.22393q-.0627-.37172-.28663-.55983-.21945-.1881-.57326-.1881-.47026 0-.75241.32694-.27768.32246-.27768 1.08383 0 .84646.28216 1.1958.28663.34932.76584.34932.35829 0 .5867-.20153.22841-.20602.32246-.70315l1.2361.2105q-.19258.85094-.73897 1.28536-.54639.43443-1.46451.43443-1.04352 0-1.66605-.65836-.61805-.65836-.61805-1.8228 0-1.17788.62253-1.83176.62253-.65835 1.68396-.65835.86885 0 1.37942.3762.51504.37173.73897 1.13757zm2.1587 3.35001h-1.2585v-4.7563h1.16892v.67628q.30007-.47922.53744-.63149.24185-.15227.54639-.15227.42995 0 .82855.23736l-.38964 1.09727q-.31799-.20602-.59118-.20602-.26424 0-.44786.1478-.18363.14331-.29111.524-.10301.38068-.10301 1.59438zm2.36471-5.40122v-1.16444h1.25849v1.16444zm0 5.40122v-4.7563h1.25849v4.7563zm2.51251-4.7563h1.1734v.69867q.22841-.3583.61805-.58222.38964-.22393.86437-.22393.82855 0 1.40629.6494t.57774 1.80936q0 1.19131-.58222 1.85415-.58222.65836-1.41077.65836-.39411 0-.71658-.15675-.31798-.15676-.67179-.53744v2.39607h-1.25849zm1.24506 2.29754q0 .80167.31798 1.18683.31798.38069.7748.38069.4389 0 .73002-.34934.29111-.3538.29111-1.15548 0-.74793-.30007-1.1107-.30007-.36277-.74345-.36277-.4613 0-.76585.3583-.30454.3538-.30454 1.05247zm6.57461-2.29754v1.00322h-.85989v1.91685q0 .58222.0224.68075.0269.09405.11197.15675.0896.0627.21497.0627.17467 0 .50608-.12092l.10749.97634q-.4389.1881-.99425.1881-.34038 0-.61357-.11197-.2732-.11644-.40308-.29559-.1254-.18362-.17467-.49265-.0403-.21945-.0403-.88676v-2.0736h-.57775v-1.00322h.57775v-.94499l1.26297-.7345v1.6795zm.87333-.64492v-1.16444h1.2585v1.16444zm0 5.40122v-4.7563h1.2585v4.7563zm3.8561 0-1.91685-4.7563h1.32119l.89573 2.42742.25976.81063q.103-.30903.12988-.40756.0627-.20153.13435-.40307l.90469-2.42742h1.29432l-1.88998 4.7563zm6.54775-1.51377 1.25401.2105q-.24184.6897-.76584 1.05247-.51952.35829-1.30328.35829-1.24058 0-1.83624-.81063-.47025-.6494-.47025-1.63918 0-1.18236.61805-1.84967.61805-.6718 1.56304-.6718 1.06143 0 1.675.70315.61357.69867.5867 2.14526h-3.15295q.0134.55983.30455.87333.29111.30903.72553.30903.29559 0 .49713-.16123t.30455-.51952zm.0717-1.27193q-.0134-.5464-.28216-.82855-.26871-.28663-.65388-.28663-.41203 0-.68075.30007-.26871.30007-.26424.8151zm-47.67275 8.84976v-1.16444h1.25849v1.16444zm0 5.40122v-4.7563h1.25849v4.7563zm6.87469 0h-1.2585v-2.42742q0-.77032-.0806-.99425-.0806-.22841-.26424-.35381-.17915-.1254-.43443-.1254-.32694 0-.5867.17914-.25976.17915-.35829.47474-.0941.29559-.0941 1.09278v2.15422h-1.25849v-4.7563h1.16892v.69867q.62253-.80616 1.56752-.80616.41651 0 .76136.15228.34486.14779.51952.38068.17915.23289.24633.52848.0717.29559.0717.84646zm.72553-4.7563h.69867v-.35829q0-.60014.1254-.89572.12988-.2956.47026-.47922.34485-.1881.86885-.1881.53743 0 1.05248.16123l-.17019.87781q-.30007-.07166-.57774-.07166-.2732 0-.39412.12988-.11645.1254-.11645.48817v.3359h.94051v.98977h-.94051v3.76653h-1.25849v-3.76653h-.69867zm3.31418 2.31097q0-.627.30903-1.2137.30902-.5867.87333-.89573.56879-.30903 1.26745-.30903 1.07935 0 1.76906.70315.68971.69866.68971 1.76905 0 1.07935-.69867 1.79145-.69419.70762-1.75114.70762-.65388 0-1.24954-.29558-.59118-.2956-.9002-.86438-.30903-.57326-.30903-1.39285zm1.28985.06718q0 .70762.33589 1.08383.3359.3762.82855.3762.49265 0 .82407-.3762.33589-.3762.33589-1.09279 0-.69866-.33589-1.07487-.33142-.3762-.82407-.3762t-.82855.3762q-.33589.3762-.33589 1.08383zm5.80877 2.37815h-1.25849v-4.7563h1.16892v.67627q.30007-.47921.53744-.63148.24184-.15228.54639-.15228.42995 0 .82854.23737l-.38964 1.09726q-.31798-.20601-.59118-.20601-.26423 0-.44786.14779-.18362.14332-.29111.524-.10301.38068-.10301 1.59439zm2.27066-4.7563h1.15997v.6494q.62253-.75689 1.48242-.75689.45682 0 .79272.1881.33589.1881.55087.56879.3135-.38068.67627-.56878.36277-.1881.7748-.1881.524 0 .88677.21497.36277.2105.54191.62252.12988.30455.12988.9853v3.04099h-1.25849v-2.71853q0-.70762-.12988-.91364-.17467-.26871-.53743-.26871-.26424 0-.49713.16123-.23289.16123-.3359.47473-.10301.30903-.10301.98082v2.2841h-1.25849v-2.60656q0-.69419-.0672-.89573-.0672-.20153-.21049-.30006-.13884-.09853-.38069-.09853-.29111 0-.524.15675-.23288.15675-.33589.45234-.0985.29559-.0985.98082v2.31097h-1.2585zm9.19014 1.45107-1.14205-.20601q.19258-.68971.66284-1.02113.47025-.33142 1.39733-.33142.84198 0 1.25401.20154.41203.19706.57774.50609.17019.30454.17019 1.12413l-.0134 1.46899q0 .627.0582.92707.0627.2956.22841.63597h-1.24506q-.0493-.1254-.12092-.37173-.0314-.11196-.0448-.1478-.32246.31351-.68971.47026-.36724.15675-.78376.15675-.73449 0-1.15996-.3986-.42099-.3986-.42099-1.00768 0-.40308.19258-.71658.19258-.31799.53744-.4837.34933-.17018 1.00321-.29558.88229-.16571 1.22266-.30903v-.1254q0-.36277-.17914-.51504-.17915-.15675-.67628-.15675-.33589 0-.52399.13436-.18811.12988-.30455.4613zm1.68396 1.02113q-.24184.08062-.76584.19258-.524.11197-.68523.21945-.24633.17467-.24633.44339 0 .26423.19706.45682.19706.19258.50161.19258.34037 0 .6494-.22393.22841-.1702.30007-.41652.0493-.16123.0493-.61357zm4.65777-2.4722v1.00321h-.8599v1.91685q0 .58222.0224.68075.0269.09405.11196.15675.0896.0627.21498.0627.17466 0 .50608-.12092l.10749.97634q-.43891.1881-.99426.1881-.34037 0-.61357-.11196-.27319-.11645-.40307-.2956-.1254-.18362-.17467-.49264-.0403-.21945-.0403-.88677v-2.0736h-.57774v-1.00321h.57774v-.94499l1.26297-.7345v1.67949zm.87333-.64492v-1.16444h1.25849v1.16444zm0 5.40122v-4.7563h1.25849v4.7563zm2.25723-2.44533q0-.627.30902-1.2137.30903-.5867.87333-.89573.56879-.30903 1.26745-.30903 1.07935 0 1.76906.70315.68971.69866.68971 1.76905 0 1.07935-.69867 1.79145-.69418.70762-1.75114.70762-.65388 0-1.24954-.29558-.59117-.2956-.9002-.86438-.30902-.57326-.30902-1.39285zm1.28984.06718q0 .70762.3359 1.08383.33589.3762.82854.3762.49265 0 .82407-.3762.3359-.3762.3359-1.09279 0-.69866-.3359-1.07487-.33142-.3762-.82407-.3762t-.82854.3762q-.3359.3762-.3359 1.08383zm8.93037 2.37815h-1.25849v-2.42742q0-.77032-.0806-.99425-.0806-.22841-.26424-.35381-.17915-.1254-.43443-.1254-.32694 0-.5867.17914-.25976.17915-.35829.47474-.0941.29559-.0941 1.09278v2.15422h-1.25849v-4.7563h1.16892v.69867q.62253-.80616 1.56751-.80616.41652 0 .76137.15228.34485.14779.51952.38068.17915.23289.24633.52848.0716.29559.0716.84646z" style="font-style:normal;font-variant:normal;font-weight:700;font-stretch:normal;font-size:9.17222px;font-family:Arial;-inkscape-font-specification:'Arial Bold';text-align:center;text-anchor:middle;stroke-width:.264583"/>
  </defs>
  <defs>
    <marker id="h" orient="auto" refX="0" refY="0" style="overflow:visible">
      <use xlink:href="#a" style="fill-rule:evenodd;stroke:#000;stroke-width:1pt;stroke-opacity:1;fill:#000;fill-opacity:1" transform="scale(.4)"/>
    </marker>
    <marker id="e" orient="auto" refX="0" refY="0" style="overflow:visible">
      <use xlink:href="#a" style="fill-rule:evenodd;stroke:#000;stroke-width:1pt;stroke-opacity:1;fill:#000;fill-opacity:1" transform="scale(.8)"/>
    </marker>
    <marker id="c" orient="auto" refX="0" refY="0" style="overflow:visible">
      <use xlink:href="#b" style="fill:#000;fill-opacity:1;fill-rule:evenodd;stroke:#000;stroke-width:1pt;stroke-opacity:1" transform="scale(.8)"/>
    </marker>
    <marker id="f" orient="auto" refX="0" refY="0" style="overflow:visible">
      <use xlink:href="#b" style="fill:#000;fill-opacity:1;fill-rule:evenodd;stroke:#000;stroke-width:1pt;stroke-opacity:1" transform="scale(.8)"/>
    </marker>
    <marker id="g" orient="auto" refX="0" refY="0" style="overflow:visible">
      <use xlink:href="#b" style="fill:#000;fill-opacity:1;fill-rule:evenodd;stroke:#000;stroke-width:1pt;stroke-opacity:1" transform="scale(.8)"/>
    </marker>
    <marker id="d" orient="auto" refX="0" refY="0" style="overflow:visible">
      <use xlink:href="#b" style="fill:#000;fill-opacity:1;fill-rule:evenodd;stroke:#000;stroke-width:1pt;stroke-opacity:1" transform="scale(.8)"/>
    </marker>
    <marker id="i" orient="auto" refX="0" refY="0" style="overflow:visible">
      <use xlink:href="#b" style="fill:#000;fill-opacity:1;fill-rule:evenodd;stroke:#000;stroke-width:1pt;stroke-opacity:1" transform="scale(.4)"/>
    </marker>
    <marker id="j" orient="auto" refX="0" refY="0" style="overflow:visible">
      <use xlink:href="#b" style="fill:#000;fill-opacity:1;fill-rule:evenodd;stroke:#000;stroke-width:1pt;stroke-opacity:1" transform="scale(.4)"/>
    </marker>
    <marker id="k" orient="auto" refX="0" refY="0" style="overflow:visible">
      <use xlink:href="#b" style="fill:#000;fill-opacity:1;fill-rule:evenodd;stroke:#000;stroke-width:1pt;stroke-opacity:1" transform="scale(.4)"/>
    </marker>
  </defs>
  <path d="M-100.05299-18.02677h404.70178v262.80413h-404.70178z" style="fill:#afe9dd;stroke:#000;stroke-width:2;stroke-miterlimit:4;stroke-dasharray:none" transform="translate(182.94048 28.87738)"/>
  <path d="M-.5654-9.32084h205.66786c8.51913 0 15.37749 6.85836 15.37749 15.37749s-6.85836 15.3775-15.37749 15.3775H-.56539c-8.51913 0-15.3775-6.85837-15.3775-15.3775s6.85837-15.3775 15.3775-15.3775z" style="fill:#517293;fill-opacity:1;stroke:none;stroke-width:2.06279;stroke-miterlimit:4;stroke-dasharray:none" transform="translate(182.94048 28.87738)"/>
  <path d="M-64.28036 195.38203h332.28987c8.51914 0 15.3775 6.85837 15.3775 15.3775s-6.85836 15.37749-15.3775 15.37749H-64.28036c-8.51913 0-15.3775-6.85836-15.3775-15.37749s6.85837-15.3775 15.3775-15.3775z" style="fill:#517293;fill-opacity:1;stroke:none;stroke-width:2.55617;stroke-miterlimit:4;stroke-dasharray:none" transform="translate(182.94048 28.87738)"/>
  <path d="M242.07971 80.8151h31.68179c4.23617 0 7.64652 3.41034 7.64652 7.64652v49.9898c0 4.23618-3.41035 7.64653-7.64652 7.64653h-31.68179c-4.23618 0-7.64653-3.41035-7.64653-7.64653v-49.9898c0-4.23618 3.41035-7.64653 7.64653-7.64653z" style="fill:#517293;fill-opacity:1;stroke:none;stroke-width:1.33963;stroke-miterlimit:4;stroke-dasharray:none" transform="translate(182.94048 28.87738)"/>
  <path d="M13.15822 61.92862a39.99453 17.07555 0 0 1-39.99453 17.07555 39.99453 17.07555 0 0 1-39.99453-17.07555 39.99453 17.07555 0 0 1 39.99452-17.07555 39.99453 17.07555 0 0 1 39.99453 17.07555zm257.62319-.04585a39.99453 17.07555 0 0 1-39.99453 17.07554 39.99453 17.07555 0 0 1-39.99453-17.07554 39.99453 17.07555 0 0 1 39.99453-17.07555 39.99453 17.07555 0 0 1 39.99453 17.07555Z" style="fill:#fff;fill-opacity:1;stroke:#000;stroke-width:1;stroke-miterlimit:4;stroke-dasharray:none" transform="translate(182.94048 28.87738)"/>
  <path d="M-106.18056 134.5188a18.90276 11.97275 0 0 1-18.90277 11.97275 18.90276 11.97275 0 0 1-18.90276-11.97275 18.90276 11.97275 0 0 1 18.90276-11.97275 18.90276 11.97275 0 0 1 18.90277 11.97275z" style="fill:#fff;fill-opacity:1;stroke:#000;stroke-width:.984619;stroke-miterlimit:4;stroke-dasharray:none" transform="translate(182.94048 28.87738)"/>
  <path d="M12.89471 153.93498a18.90276 11.97275 0 0 1-18.90276 11.97275 18.90276 11.97275 0 0 1-18.90277-11.97275 18.90276 11.97275 0 0 1 18.90277-11.97275 18.90276 11.97275 0 0 1 18.90276 11.97275Z" style="fill:#fff;fill-opacity:1;stroke:#000;stroke-width:.984618;stroke-miterlimit:4;stroke-dasharray:none" transform="translate(182.94048 28.87738)"/>
  <path d="M209.78934 159.31281a19.276 11.96801 0 0 1-19.276 11.96801 19.276 11.96801 0 0 1-19.27601-11.96801 19.276 11.96801 0 0 1 19.27601-11.96802 19.276 11.96801 0 0 1 19.276 11.96802z" style="fill:#fff;fill-opacity:1;stroke:#000;stroke-width:.994094;stroke-miterlimit:4;stroke-dasharray:none" transform="translate(182.94048 28.87738)"/>
  <path d="M349.71206 153.58943a19.46264 11.96566 0 0 1-19.46264 11.96566 19.46264 11.96566 0 0 1-19.46264-11.96566 19.46264 11.96566 0 0 1 19.46264-11.96566 19.46264 11.96566 0 0 1 19.46264 11.96566z" style="fill:#fff;fill-opacity:1;stroke:#000;stroke-width:.998797;stroke-miterlimit:4;stroke-dasharray:none" transform="translate(182.94048 28.87738)"/>
  <path d="M-15.89424 6.25236-117.805 6.11872l-40.09043 55.7257M220.40498 6.33181l108.71432-.13364 39.99593 47.8827M-79.60323 211.01208l-40.9621-.0554-39.80695-47.88268m444.0751 47.99212 45.97027.13363 39.14549-53.64682" style="fill:none;stroke:#000;stroke-width:2;stroke-linecap:butt;stroke-linejoin:miter;stroke-miterlimit:4;stroke-dasharray:none;stroke-opacity:1" transform="translate(182.94048 28.87738)"/>
  <path d="m-71.4375 124.20298.18898 72.76042" style="fill:none;stroke:#000;stroke-width:2;stroke-linecap:butt;stroke-linejoin:miter;stroke-miterlimit:4;stroke-dasharray:8,2;stroke-dashoffset:0;stroke-opacity:1" transform="translate(182.94048 28.87738)"/>
  <path d="m-45.6219 101.66817 97.4256-44.69289" style="fill:none;stroke:#000;stroke-width:2;stroke-linecap:butt;stroke-linejoin:miter;stroke-miterlimit:4;stroke-dasharray:none;stroke-opacity:1;marker-end:url(#c)" transform="translate(182.94048 28.87738)"/>
  <path d="m22.96205 21.67694.18899 172.16815m68.98066-22.1116.18898 23.24554m37.23066-124.16519.18899 123.78722" style="fill:none;stroke:#000;stroke-width:2;stroke-linecap:butt;stroke-linejoin:miter;stroke-miterlimit:4;stroke-dasharray:7.99999,2;stroke-dashoffset:0;stroke-opacity:1" transform="translate(182.94048 28.87738)"/>
  <path d="m142.11187 52.5784 82.45849 39.88205" style="fill:none;stroke:#000;stroke-width:2;stroke-linecap:butt;stroke-linejoin:miter;stroke-miterlimit:4;stroke-dasharray:none;stroke-opacity:1;marker-end:url(#d)" transform="translate(182.94048 28.87738)"/>
  <path d="M71.8596 33.38695h60.38795c5.8349 0 10.53232 4.69741 10.53232 10.53232v16.7152c0 5.8349-4.69742 10.53232-10.53232 10.53232H71.85959c-5.8349 0-10.53232-4.69742-10.53232-10.53232v-16.7152c0-5.8349 4.69742-10.53232 10.53232-10.53232z" style="fill:#517293;fill-opacity:1;stroke:none;stroke-width:1.34194;stroke-miterlimit:4;stroke-dasharray:none" transform="translate(182.94048 28.87738)"/>
  <path d="m269.7805 146.03111.18899 48.94792" style="fill:none;stroke:#000;stroke-width:2;stroke-linecap:butt;stroke-linejoin:miter;stroke-miterlimit:4;stroke-dasharray:7.99999,2;stroke-dashoffset:0;stroke-opacity:1" transform="translate(182.94048 28.87738)"/>
  <path d="M93.07663 226.54003v30.99405" style="fill:none;stroke:#000;stroke-width:2;stroke-linecap:butt;stroke-linejoin:miter;stroke-miterlimit:4;stroke-dasharray:none;stroke-dashoffset:0;stroke-opacity:1" transform="translate(182.94048 28.87738)"/>
  <path d="m-149.79906 113.31001 58.26476.53455" style="fill:none;stroke:#000;stroke-width:2;stroke-linecap:butt;stroke-linejoin:miter;stroke-miterlimit:4;stroke-dasharray:none;stroke-opacity:1;marker-end:url(#e)" transform="translate(182.94048 28.87738)"/>
  <path d="m-46.30758 124.85189 96.85862 26.17206" style="fill:none;stroke:#000;stroke-width:2;stroke-linecap:butt;stroke-linejoin:miter;stroke-miterlimit:4;stroke-dasharray:none;stroke-opacity:1;marker-end:url(#f)" transform="translate(182.94048 28.87738)"/>
  <path d="m122.91719 153.99095 100.82738-21.82533" style="fill:none;stroke:#000;stroke-width:2;stroke-linecap:butt;stroke-linejoin:miter;stroke-miterlimit:4;stroke-dasharray:none;stroke-opacity:1;marker-end:url(#g)" transform="translate(182.94048 28.87738)"/>
  <path d="m281.47062 104.22117 78.67547.53455" style="fill:none;stroke:#000;stroke-width:2;stroke-linecap:butt;stroke-linejoin:miter;stroke-miterlimit:4;stroke-dasharray:none;stroke-opacity:1;marker-end:url(#h)" transform="translate(182.94048 28.87738)"/>
  <path d="m281.75046 136.91687 78.67548.53455" style="fill:none;stroke:#000;stroke-width:2;stroke-linecap:butt;stroke-linejoin:miter;stroke-miterlimit:4;stroke-dasharray:none;stroke-opacity:1;marker-end:url(#i)" transform="translate(182.94048 28.87738)"/>
  <path d="m366.4787 120.28592-78.67548.53455" style="fill:none;stroke:#000;stroke-width:2;stroke-linecap:butt;stroke-linejoin:miter;stroke-miterlimit:4;stroke-dasharray:none;stroke-opacity:1;marker-end:url(#j)" transform="translate(182.94048 28.87738)"/>
  <path d="m366.10073 86.64604-78.67548.53455" style="fill:none;stroke:#000;stroke-width:2;stroke-linecap:butt;stroke-linejoin:miter;stroke-miterlimit:4;stroke-dasharray:none;stroke-opacity:1;marker-end:url(#k)" transform="translate(182.94048 28.87738)"/>
  <g style="font-size:12.7px;line-height:1.25;font-family:Arial;-inkscape-font-specification:Arial;text-align:center;text-anchor:middle;stroke-width:.264583">
    <path d="m-135.32031 136.74204 1.78594-.17363q.16123.89917.65112 1.32084.4961.42168 1.33326.42168.88676 0 1.33325-.37207.45268-.37827.45268-.88056 0-.32246-.19223-.54571-.18604-.22944-.65733-.39687-.32246-.11162-1.46967-.39688-1.47588-.36586-2.0712-.89917-.83715-.75034-.83715-1.82934 0-.69453.39067-1.29605.39687-.60771 1.13481-.92397.74414-.31626 1.79214-.31626 1.71153 0 2.57349.75034.86816.75034.91157 2.00298l-1.83555.0806q-.11782-.70074-.50849-1.00459-.38447-.31006-1.15962-.31006-.79995 0-1.25264.32866-.29145.21084-.29145.56431 0 .32246.27285.5519.34726.29146 1.68672.60771 1.33945.31626 1.97817.65733.64492.33486 1.00459.92397.36587.58291.36587 1.44488 0 .78134-.43408 1.46347t-1.22783 1.017q-.79375.32866-1.97818.32866-1.72392 0-2.6479-.79375-.92397-.79995-1.10381-2.32544zm8.88008 2.95796v-9.09092h1.83555V139.7Zm3.58428 0v-9.09092h2.94556q1.67431 0 2.18281.13642.78135.20464 1.30845.89297.5271.68213.5271 1.76734 0 .83716-.30386 1.40766-.30386.57051-.77515.89917-.46509.32246-.94878.42788-.65732.13023-1.90376.13023h-1.19682V139.7Zm1.83555-7.55303v2.57969h1.00459q1.0852 0 1.45107-.14263.36587-.14263.57051-.44648.21084-.30386.21084-.70694 0-.49609-.29146-.81855-.29145-.32246-.73794-.40308-.32866-.062-1.32085-.062z" aria-label="SIP" style="font-style:normal;font-variant:normal;font-weight:700;font-stretch:normal;font-size:12.7px;font-family:Arial;-inkscape-font-specification:'Arial Bold';text-align:center;text-anchor:middle;stroke-width:.264583" transform="translate(182.94048 28.87738)"/>
  </g>
  <g style="font-size:12.7px;line-height:1.25;font-family:Arial;-inkscape-font-specification:Arial;text-align:center;text-anchor:middle;stroke-width:.264583">
    <path d="M-7.48186 158.98549h-1.99678l-.79375-2.06499h-3.63389l-.75034 2.06499h-1.94717l3.54087-9.09092h1.94097zm-3.37964-3.59668-1.25264-3.37344-1.22783 3.37344zm4.2974 3.59668v-9.09092h1.83555v9.09092zm3.58428 0v-9.09092h2.94556q1.67432 0 2.18281.13643.78135.20464 1.30845.89297.5271.68212.5271 1.76733 0 .83716-.30386 1.40767-.30385.5705-.77514.89917-.4651.32246-.94878.42788-.65733.13022-1.90376.13022h-1.19683v3.42925zm1.83555-7.55303v2.57969h1.0046q1.0852 0 1.45107-.14263.36586-.14262.5705-.44648.21084-.30386.21084-.70694 0-.49609-.29145-.81855-.29146-.32246-.73794-.40308-.32866-.062-1.32085-.062z" aria-label="AIP" style="font-style:normal;font-variant:normal;font-weight:700;font-stretch:normal;font-size:12.7px;font-family:Arial;-inkscape-font-specification:'Arial Bold';text-align:center;text-anchor:middle;stroke-width:.264583" transform="translate(182.94048 28.87738)"/>
  </g>
  <g style="font-size:12.7px;line-height:1.25;font-family:Arial;-inkscape-font-specification:Arial;text-align:center;text-anchor:middle;stroke-width:.264583">
    <path d="M189.5558 163.79634h-1.99678l-.79375-2.06499h-3.63389l-.75034 2.06499h-1.94717l3.54087-9.09092h1.94097zm-3.37964-3.59668-1.25264-3.37344-1.22783 3.37344zm4.29741 3.59668v-9.09092h1.83555v9.09092zm3.58428 0v-9.09092h2.94555q1.67432 0 2.18281.13643.78135.20464 1.30845.89297.5271.68213.5271 1.76733 0 .83716-.30386 1.40767-.30385.57051-.77514.89917-.46509.32246-.94878.42788-.65733.13022-1.90376.13022h-1.19683v3.42925zm1.83554-7.55303v2.57969h1.00459q1.08521 0 1.45108-.14263.36587-.14262.5705-.44648.21084-.30386.21084-.70693 0-.4961-.29145-.81856-.29146-.32246-.73794-.40307-.32866-.062-1.32085-.062z" aria-label="AIP" style="font-style:normal;font-variant:normal;font-weight:700;font-stretch:normal;font-size:12.7px;font-family:Arial;-inkscape-font-specification:'Arial Bold';text-align:center;text-anchor:middle;stroke-width:.264583" transform="translate(182.94048 28.87738)"/>
  </g>
  <g style="font-size:14.1111px;line-height:1.25;font-family:Arial;-inkscape-font-specification:Arial;text-align:center;text-anchor:middle;stroke-width:.264583">
    <path d="M321.00053 150.0227h3.35483q1.13481 0 1.73013.17363.79995.23565 1.37045.83716.57051.60151.86817 1.47588.29766.86816.29766 2.1456 0 1.12242-.27906 1.93477-.34106.99219-.97358 1.6061-.47749.46509-1.28985.72554-.60771.19224-1.6247.19224h-3.45405zm1.83554 1.53789v6.02134h1.37046q.76895 0 1.11001-.0868.44648-.11162.73794-.37827.29766-.26665.48369-.87437.18604-.61391.18604-1.66811t-.18604-1.61851q-.18603-.5643-.5209-.88056-.33486-.31626-.84956-.42788-.38447-.0868-1.50688-.0868zm7.28638 7.55303v-9.09092h1.83555v9.09092zm3.58428 0v-9.09092h2.94555q1.67432 0 2.18281.13642.78135.20464 1.30845.89297.5271.68213.5271 1.76734 0 .83716-.30386 1.40766-.30385.57051-.77514.89917-.46509.32246-.94878.42788-.65733.13023-1.90376.13023h-1.19683v3.42925zm1.83554-7.55303v2.57969h1.00459q1.08521 0 1.45108-.14263.36587-.14263.5705-.44648.21084-.30386.21084-.70694 0-.49609-.29145-.81855-.29146-.32246-.73794-.40308-.32866-.062-1.32085-.062z" aria-label="DIP" style="font-style:normal;font-variant:normal;font-weight:700;font-stretch:normal;font-size:12.7px;font-family:Arial;-inkscape-font-specification:'Arial Bold';text-align:center;text-anchor:middle;stroke-width:.264583" transform="translate(182.94048 28.87738)"/>
  </g>
  <g style="font-size:9.17222px;line-height:1.25;font-family:Arial;-inkscape-font-specification:Arial;text-align:center;text-anchor:middle;stroke-width:.264583">
    <use xlink:href="#l" aria-label="Descriptive information" style="font-style:normal;font-variant:normal;font-weight:700;font-stretch:normal;font-size:9.17222px;font-family:Arial;-inkscape-font-specification:'Arial Bold';text-align:center;text-anchor:middle;stroke-width:.264583" transform="translate(182.94048 28.87738)"/>
  </g>
  <g style="font-size:12.7px;line-height:1.25;font-family:Arial;-inkscape-font-specification:Arial;text-align:center;text-anchor:middle;stroke-width:.264583">
    <path d="M47.43247 270.99457v-9.09092h2.74712l1.6495 6.20117 1.63092-6.20117h2.75332v9.09092H54.508v-7.15615l-1.80454 7.15615h-1.76733l-1.79834-7.15615v7.15615zm18.80195 0h-1.99678l-.79375-2.06499h-3.63388l-.75034 2.06499H57.1125l3.54087-9.09092h1.94096zm-3.37964-3.59668-1.25263-3.37344-1.22784 3.37344zm4.37182 3.59668v-9.09092h1.78595l3.7207 6.07095v-6.07095h1.70532v9.09092h-1.84175l-3.66489-5.92832v5.92832zm17.35089 0H82.5807l-.79375-2.06499h-3.63389l-.75034 2.06499h-1.94717l3.54087-9.09092h1.94097zm-3.37964-3.59668-1.25264-3.37344-1.22783 3.37344zm8.58242.25425v-1.53169h3.95635v3.62148q-.57671.55811-1.67432.98599-1.0914.42168-2.21382.42168-1.42627 0-2.48667-.59532-1.0604-.60151-1.5937-1.71152-.5333-1.11621-.5333-2.42466 0-1.42007.59531-2.52387.59531-1.10381 1.74253-1.69292.87437-.45269 2.17661-.45269 1.69292 0 2.6417.71314.95498.70693 1.22783 1.95957l-1.82314.34106q-.19224-.66973-.72554-1.0542-.5271-.39067-1.32085-.39067-1.20302 0-1.91616.76274-.70693.76275-.70693 2.26343 0 1.6185.71933 2.43086.71934.80615 1.88516.80615.5767 0 1.15342-.22324.5829-.22944.99839-.55191v-1.15341zm5.64927 3.34243v-9.09092h6.74067v1.53789h-4.90513v2.01538h4.56407v1.53169h-4.56407v2.47427h5.07876v1.53169zm8.44599 0v-9.09092h2.74712l1.64951 6.20117 1.63091-6.20117h2.75332v9.09092h-1.70532v-7.15615l-1.80454 7.15615h-1.76734l-1.79834-7.15615v7.15615zm10.60401 0v-9.09092h6.74067v1.53789h-4.90513v2.01538h4.56406v1.53169h-4.56406v2.47427h5.07876v1.53169zm8.4894 0v-9.09092h1.78594l3.7207 6.07095v-6.07095h1.70532v9.09092h-1.84174l-3.6649-5.92832v5.92832zm11.19932 0v-7.55303h-2.69751v-1.53789h7.22436v1.53789h-2.69131v7.55303z" aria-label="MANAGEMENT" style="font-style:normal;font-variant:normal;font-weight:700;font-stretch:normal;font-size:12.7px;font-family:Arial;-inkscape-font-specification:'Arial Bold';text-align:center;text-anchor:middle;stroke-width:.264583" transform="translate(182.94048 28.87738)"/>
  </g>
  <g style="font-size:14.1111px;line-height:1.25;font-family:Arial;-inkscape-font-specification:Arial;text-align:center;text-anchor:middle;stroke-width:.264583">
    <path d="M-149.11272-154.92976v-9.09092h2.94555q1.67432 0 2.18282.13642.78134.20464 1.30844.89297.5271.68213.5271 1.76734 0 .83716-.30385 1.40766-.30386.57051-.77515.89917-.46509.32246-.94878.42788-.65732.13023-1.90376.13023h-1.19683v3.42925zm1.83554-7.55303v2.57969h1.00459q1.08521 0 1.45108-.14263.36587-.14263.57051-.44648.21084-.30386.21084-.70694 0-.49609-.29146-.81855-.29145-.32246-.73794-.40308-.32866-.062-1.32085-.062zm6.64146 7.55303v-9.09092h3.86333q1.45727 0 2.1146.24805.66352.24184 1.0604.86816.39687.62632.39687 1.43247 0 1.02319-.60151 1.69292-.60151.66353-1.79834.83716.59531.34726.97979.76274.39067.41548 1.04799 1.47588l1.11001 1.77354h-2.19521l-1.32705-1.97818q-.70694-1.0604-.96738-1.33325-.26045-.27905-.55191-.37827-.29145-.10542-.92397-.10542h-.37207v3.79512zm1.83555-5.2462h1.35805q1.32085 0 1.64951-.11162.32867-.11162.5147-.38447.18604-.27285.18604-.68213 0-.45888-.24805-.73794-.24185-.28525-.68833-.35967-.22324-.031-1.33945-.031h-1.43247zm6.95771.75655q0-1.38906.41548-2.33164.31006-.69453.84336-1.24644.5395-.5519 1.17822-.81855.84956-.35967 1.95957-.35967 2.00918 0 3.21221 1.24643 1.20923 1.24644 1.20923 3.46646 0 2.20142-1.19683 3.44785-1.19682 1.24024-3.1998 1.24024-2.02779 0-3.22461-1.23404-1.19683-1.24023-1.19683-3.41064zm1.89136-.062q0 1.54409.71313 2.34404.71314.79375 1.81075.79375 1.0976 0 1.79834-.78755.70693-.79375.70693-2.37505 0-1.56269-.68833-2.33164-.68213-.76894-1.81694-.76894-1.13482 0-1.82935.78134-.69453.77515-.69453 2.34405zm8.35298-4.53927h3.35483q1.13481 0 1.73013.17363.79995.23565 1.37046.83716.5705.60151.86816 1.47588.29766.86816.29766 2.1456 0 1.12242-.27906 1.93477-.34106.99219-.97358 1.6061-.47749.46509-1.28984.72554-.60772.19224-1.62471.19224h-3.45405zm1.83554 1.53789v6.02134h1.37046q.76895 0 1.11001-.0868.44649-.11162.73794-.37827.29766-.26665.48369-.87437.18604-.61391.18604-1.66811t-.18604-1.61851q-.18603-.5643-.5209-.88056-.33486-.31626-.84956-.42788-.38447-.0868-1.50688-.0868zm7.32979-1.53789h1.83555v4.92373q0 1.17202.0682 1.51929.11782.5581.5581.89917.44649.33486 1.21543.33486.78135 0 1.17823-.31626.39687-.32246.47749-.78755.0806-.46509.0806-1.54409v-5.02915h1.83555v4.7749q0 1.63711-.14883 2.31304-.14883.67593-.5519 1.14101-.39688.46509-1.06661.74414-.66972.27286-1.74873.27286-1.30224 0-1.97817-.29766-.66973-.30386-1.0604-.78135-.39067-.48369-.5147-1.01079-.17983-.78135-.17983-2.30684zm15.00063 5.74848 1.77974.56431q-.40928 1.48828-1.36426 2.21382-.94878.71934-2.41226.71934-1.81074 0-2.97656-1.23404-1.16582-1.24023-1.16582-3.38584 0-2.26963 1.17202-3.52226 1.17202-1.25884 3.08199-1.25884 1.66811 0 2.7099.98599.62013.58291.93018 1.67431l-1.81694.43408q-.16123-.70693-.67593-1.11621-.5085-.40927-1.24023-.40927-1.01079 0-1.64331.72553-.62632.72554-.62632 2.35025 0 1.72392.62012 2.45566.62011.73174 1.6123.73174.73174 0 1.25884-.46509t.75654-1.46348zm3.35483 3.34244v-9.09092h6.74068v1.53789h-4.90513v2.01538h4.56406v1.53169h-4.56406v2.47427h5.07876v1.53169zm8.47701 0v-9.09092h3.86333q1.45727 0 2.1146.24805.66352.24184 1.0604.86816.39687.62632.39687 1.43247 0 1.02319-.60151 1.69292-.60151.66353-1.79834.83716.59531.34726.97978.76274.39068.41548 1.048 1.47588l1.11001 1.77354h-2.19521l-1.32705-1.97818q-.70694-1.0604-.96739-1.33325-.26044-.27905-.5519-.37827-.29146-.10542-.92397-.10542h-.37207v3.79512zm1.83554-5.2462h1.35806q1.32085 0 1.64951-.11162.32867-.11162.5147-.38447.18604-.27285.18604-.68213 0-.45888-.24805-.73794-.24185-.28525-.68833-.35967-.22324-.031-1.33945-.031h-1.43248z" aria-label="PRODUCER" style="font-style:normal;font-variant:normal;font-weight:700;font-stretch:normal;font-size:12.7px;font-family:Arial;-inkscape-font-specification:'Arial Bold';text-align:center;text-anchor:middle;stroke-width:.264583" transform="rotate(-90 105.90893 -77.03155)"/>
  </g>
  <g style="font-size:14.1111px;line-height:1.25;font-family:Arial;-inkscape-font-specification:Arial;text-align:center;text-anchor:middle;stroke-width:.264583">
    <path d="m-138.69451 377.39039 1.77973.5643q-.40927 1.48828-1.36425 2.21382-.94878.71934-2.41226.71934-1.81074 0-2.97656-1.23404-1.16582-1.24023-1.16582-3.38584 0-2.26962 1.17202-3.52226 1.17202-1.25884 3.08198-1.25884 1.66812 0 2.70991.98599.62012.58291.93018 1.67431l-1.81694.43409q-.16123-.70694-.67593-1.11621-.5085-.40928-1.24024-.40928-1.01079 0-1.64331.72554-.62632.72553-.62632 2.35024 0 1.72392.62012 2.45566.62012.73174 1.61231.73174.73173 0 1.25883-.46509.5271-.46508.75655-1.46347zm2.98276-1.14722q0-1.38906.41548-2.33164.31006-.69453.84336-1.24644.5395-.5519 1.17822-.81855.84956-.35967 1.95957-.35967 2.00918 0 3.21221 1.24644 1.20923 1.24643 1.20923 3.46645 0 2.20142-1.19683 3.44785-1.19683 1.24024-3.1998 1.24024-2.02779 0-3.22461-1.23404-1.19683-1.24023-1.19683-3.41064zm1.89136-.062q0 1.54409.71313 2.34404.71314.79375 1.81075.79375 1.0976 0 1.79833-.78755.70694-.79375.70694-2.37505 0-1.56269-.68833-2.33164-.68213-.76894-1.81694-.76894-1.13482 0-1.82935.78135-.69453.77514-.69453 2.34404zm8.37778 4.55165v-9.09092h1.78594l3.7207 6.07095v-6.07095h1.70532v9.09092h-1.84174l-3.6649-5.92832v5.92832zm8.68784-2.95796 1.78594-.17363q.16123.89917.65112 1.32085.4961.42168 1.33325.42168.88677 0 1.33326-.37207.45268-.37828.45268-.88057 0-.32246-.19223-.5457-.18604-.22945-.65733-.39688-.32246-.11162-1.46968-.39687-1.47588-.36587-2.07119-.89917-.83716-.75035-.83716-1.82935 0-.69453.39068-1.29604.39687-.60772 1.13481-.92398.74414-.31626 1.79214-.31626 1.71152 0 2.57349.75034.86816.75035.91157 2.00298l-1.83555.0806q-.11782-.70074-.50849-1.00459-.38448-.31006-1.15962-.31006-.79995 0-1.25264.32866-.29145.21084-.29145.56431 0 .32246.27285.5519.34726.29146 1.68672.60772 1.33945.31626 1.97817.65732.64492.33486 1.00459.92398.36587.58291.36587 1.44487 0 .78135-.43408 1.46347-.43409.68213-1.22784 1.017-.79375.32866-1.97817.32866-1.72393 0-2.6479-.79375-.92397-.79995-1.10381-2.32544zm8.92349-6.13296h1.83555v4.92373q0 1.17202.0682 1.51929.11782.5581.5581.89917.44649.33486 1.21543.33486.78135 0 1.17823-.31626.39687-.32246.47749-.78755.0806-.46509.0806-1.54409v-5.02915h1.83555v4.7749q0 1.63711-.14883 2.31304-.14883.67593-.5519 1.14102-.39688.46508-1.0666.74414-.66973.27285-1.74874.27285-1.30224 0-1.97817-.29766-.66973-.30386-1.0604-.78135-.39067-.48369-.5147-1.01079-.17983-.78134-.17983-2.30683zm9.15913 9.09092v-9.09092h2.74712l1.6495 6.20117 1.63092-6.20117h2.75332v9.09092h-1.70532v-7.15615l-1.80454 7.15615h-1.76734l-1.79834-7.15615v7.15615zm10.604 0v-9.09092h6.74067v1.53789h-4.90512v2.01538h4.56406v1.53169h-4.56406v2.47427h5.07876v1.53169zm8.477 0v-9.09092h3.86333q1.45728 0 2.1146.24805.66353.24184 1.0604.86816.39688.62632.39688 1.43247 0 1.0232-.60151 1.69292-.60152.66353-1.79834.83716.5953.34727.97978.76274.39067.41548 1.048 1.47588l1.11 1.77354h-2.1952l-1.32706-1.97818q-.70693-1.0604-.96738-1.33325-.26045-.27905-.5519-.37827-.29146-.10542-.92398-.10542h-.37207v3.79512zm1.83555-5.24619h1.35806q1.32085 0 1.6495-.11162.32867-.11162.5147-.38448.18604-.27285.18604-.68213 0-.45888-.24805-.73793-.24184-.28526-.68833-.35967-.22324-.031-1.33945-.031h-1.43247z" aria-label="CONSUMER" style="font-style:normal;font-variant:normal;font-weight:700;font-stretch:normal;font-size:12.7px;font-family:Arial;-inkscape-font-specification:'Arial Bold';text-align:center;text-anchor:middle;stroke-width:.264583" transform="rotate(-90 105.90893 -77.03155)"/>
  </g>
  <path d="M-67.62546 100.75845h41.7176c6.7739 0 12.22727 5.45337 12.22727 12.22728 0 6.77391-5.45336 12.22727-12.22727 12.22727h-41.7176c-6.7739 0-12.22727-5.45336-12.22727-12.22727 0-6.77391 5.45336-12.22728 12.22727-12.22728z" style="fill:#517293;fill-opacity:1;stroke:none;stroke-width:.973126;stroke-miterlimit:4;stroke-dasharray:none" transform="translate(182.94048 28.87738)"/>
  <path d="M70.88074 137.18321h42.39825c5.33957 0 9.6382 4.29864 9.6382 9.63821v15.2962c0 5.33957-4.29863 9.63821-9.6382 9.63821H70.88074c-5.33957 0-9.6382-4.29864-9.6382-9.63821v-15.2962c0-5.33957 4.29863-9.63821 9.6382-9.63821z" style="fill:#517293;fill-opacity:1;stroke:none;stroke-width:1.11705;stroke-miterlimit:4;stroke-dasharray:none" transform="translate(182.94048 28.87738)"/>
  <g aria-label="Preservation planning" style="font-style:normal;font-variant:normal;font-weight:700;font-stretch:normal;font-size:9.87778px;line-height:1.25;font-family:Arial;-inkscape-font-specification:'Arial Bold';text-align:center;text-anchor:middle;fill:#fff;stroke-width:.264583">
    <path d="M52.60337 9.30787V2.23716h2.29099q1.30225 0 1.69774.1061.60772.15917 1.01769.69454.40996.53054.40996 1.3746 0 .65112-.23633 1.09484-.23633.44373-.6029.69936-.36173.2508-.73793.3328-.51126.10128-1.4807.10128h-.93087v2.6672zm1.42765-5.87457v2.00642h.78135q.84405 0 1.12861-.11093.28457-.11093.44373-.34727.16399-.23633.16399-.54983 0-.38586-.2267-.63666-.22668-.2508-.57395-.3135-.25562-.04823-1.02732-.04823zm6.44853 5.87457h-1.3553V4.18571h1.25884V4.914q.32315-.51608.57877-.68006.26045-.16399.58843-.16399.46302 0 .89228.25563l-.41962 1.18166q-.34244-.22186-.63665-.22186-.28457 0-.48231.15916-.19775.15434-.3135.56431-.11094.40997-.11094 1.71704zm5.51285-1.63021 1.35047.22668q-.26045.74277-.82476 1.13344-.55948.38585-1.40353.38585-1.336 0-1.97748-.87299-.50643-.69935-.50643-1.76526 0-1.27331.6656-1.99196.66558-.72347 1.68327-.72347 1.14308 0 1.80385.75723.66077.75241.63183 2.31028h-3.39549q.01447.6029.32798.94052.3135.3328.78134.3328.31833 0 .53537-.17364.21704-.17363.32797-.55948zm.07716-1.36978q-.01447-.58842-.30385-.89228-.2894-.30868-.70418-.30868-.44373 0-.73312.32315t-.28456.87781zm1.97267 1.53858 1.36012-.20739q.08682.3955.35209.6029.26527.20256.74276.20256.52572 0 .791-.19292.17845-.13505.17845-.36174 0-.15434-.09646-.25562-.10128-.09647-.45337-.17846-1.63987-.36173-2.07877-.66077-.60772-.41479-.60772-1.15273 0-.66559.52572-1.11896.52572-.45338 1.63022-.45338 1.05145 0 1.5627.34244.51125.34245.70418 1.01286l-1.27814.23633q-.082-.29903-.3135-.4582-.22669-.15916-.65112-.15916-.53537 0-.76688.14952-.15434.10611-.15434.27492 0 .1447.13504.24598.18328.13505 1.26366.38103 1.08521.24598 1.51447.60289.42444.36173.42444 1.00803 0 .70418-.58843 1.21061-.58842.50643-1.74115.50643-1.04662 0-1.65916-.42444-.60771-.42443-.79581-1.15273zm8.93727-.1688 1.35047.22668q-.26045.74277-.82476 1.13344-.55948.38585-1.40353.38585-1.336 0-1.97748-.87299-.50643-.69935-.50643-1.76526 0-1.27331.6656-1.99196.66558-.72347 1.68327-.72347 1.14308 0 1.80385.75723.66077.75241.63183 2.31028h-3.39549q.01447.6029.32797.94052.3135.3328.78135.3328.31833 0 .53537-.17364.21704-.17363.32797-.55948zm.07716-1.36978q-.01447-.58842-.30385-.89228-.2894-.30868-.70418-.30868-.44373 0-.73312.32315t-.28456.87781zm3.74758 2.99999h-1.3553V4.18571h1.25884V4.914q.32315-.51608.57877-.68006.26045-.16399.58843-.16399.46302 0 .89228.25563l-.41962 1.18166q-.34244-.22186-.63665-.22186-.28457 0-.48231.15916-.19775.15434-.3135.56431-.11094.40997-.11094 1.71704z" style="font-style:normal;font-variant:normal;font-weight:700;font-stretch:normal;font-size:9.87778px;font-family:Arial;-inkscape-font-specification:'Arial Bold';text-align:center;text-anchor:middle;fill:#fff;stroke-width:.264583" transform="translate(182.94048 28.87738)"/>
    <path d="m84.75921 9.30787-2.0643-5.12216h1.42282l.96463 2.61413.27974.873q.11093-.3328.13987-.43891.06752-.21704.1447-.43409l.97427-2.61413h1.39389l-2.03537 5.12216zm5.09805-3.55947-1.2299-.22186q.2074-.74277.71383-1.09968.50643-.35691 1.50482-.35691.90674 0 1.35047.21704.44373.21222.62219.54502.18328.32797.18328 1.2106l-.01447 1.582q0 .67523.0627.99838.06752.31833.24598.68488h-1.34083q-.05306-.13504-.13023-.40032-.03376-.12057-.04823-.15916-.34727.33762-.74276.50643-.3955.16881-.84405.16881-.791 0-1.2492-.42926-.45337-.42926-.45337-1.0852 0-.43409.2074-.7717.2074-.34245.57877-.5209.3762-.18328 1.08039-.31833.95015-.17846 1.31671-.3328V5.8304q0-.39067-.19292-.55466-.19293-.1688-.7283-.1688-.36173 0-.5643.14469-.20258.13987-.32798.49678zm1.8135 1.09968q-.26045.08681-.82476.2074-.5643.12057-.73793.23632-.26528.1881-.26528.4775 0 .28456.21222.49195.21222.2074.5402.2074.36655 0 .69935-.24116.24598-.18328.32315-.44855.05305-.17363.05305-.66077zm5.01606-2.66238v1.0804h-.92604v2.0643q0 .627.02412.73312.02894.10128.12058.1688.09646.06753.23151.06753.1881 0 .54501-.13022l.11576 1.05144q-.47267.20257-1.07074.20257-.36655 0-.66076-.12058-.29422-.1254-.4341-.31833-.13504-.19774-.1881-.53054-.0434-.23633-.0434-.95498V5.26609h-.62219V4.1857h.62219V3.16802l1.36012-.79099v1.80868zm.94051-.69453V2.23716h1.3553v1.25401zm0 5.8167V4.18571h1.3553v5.12216zm2.43086-2.63343q0-.67524.3328-1.30707t.94051-.96462q.61254-.3328 1.36495-.3328 1.16237 0 1.90514.75723.74276.75241.74276 1.90514 0 1.16238-.75241 1.92925-.74758.76206-1.88584.76206-.70418 0-1.34566-.31833-.63665-.31832-.96945-.93086-.3328-.61736-.3328-1.5zm1.38907.07235q0 .76206.36173 1.1672.36174.40514.89228.40514.53055 0 .88746-.40514.36173-.40514.36173-1.17685 0-.7524-.36173-1.15755-.35691-.40514-.88746-.40514-.53054 0-.89228.40514-.36173.40514-.36173 1.1672zm9.61733 2.56108h-1.3553V6.69374q0-.82958-.0868-1.07074-.0868-.24598-.28456-.38103-.19293-.13505-.46785-.13505-.35209 0-.63183.19293t-.38585.51125q-.10129.31833-.10129 1.17685v2.31992h-1.3553V4.18571h1.25884v.7524q.67042-.86816 1.6881-.86816.44855 0 .81993.16399.37138.15916.55948.40996.19293.2508.26528.56913.0772.31833.0772.91158zm4.08037-5.12217h1.26366v.75241q.24598-.38585.66559-.627.41962-.24116.93087-.24116.89228 0 1.51446.69935.62219.69936.62219 1.94855 0 1.28296-.62701 1.99678-.62701.709-1.51929.709-.42443 0-.7717-.16881-.34244-.16881-.72347-.57878v2.58038h-1.3553zm1.34083 2.47427q0 .86334.34244 1.27813.34245.40997.83441.40997.47266 0 .78617-.3762.3135-.38103.3135-1.24437 0-.80547-.32315-1.19614-.32315-.39067-.80064-.39067-.49678 0-.82475.38585-.32798.38102-.32798 1.13343zm4.73149 2.6479V2.23716h1.3553v7.07071zm3.75723-3.55947-1.2299-.22186q.2074-.74277.71383-1.09968.50642-.35691 1.50481-.35691.90675 0 1.35048.21704.44373.21222.62219.54502.18327.32797.18327 1.2106l-.0145 1.582q0 .67523.0627.99838.0675.31833.24598.68488h-1.34084q-.053-.13504-.13022-.40032-.0338-.12057-.0482-.15916-.34727.33762-.74276.50643-.3955.16881-.84405.16881-.791 0-1.24919-.42926-.45338-.42926-.45338-1.0852 0-.43409.2074-.7717.20739-.34245.57877-.5209.37621-.18328 1.08038-.31833.95016-.17846 1.31672-.3328V5.8304q0-.39067-.19293-.55466-.19292-.1688-.72829-.1688-.36173 0-.56431.14469-.20257.13987-.32797.49678zm1.8135 1.09968q-.26045.08681-.82476.2074-.5643.12057-.73794.23632-.26527.1881-.26527.4775 0 .28456.21222.49195.21222.2074.54019.2074.36656 0 .69936-.24116.24598-.18328.32315-.44855.053-.17363.053-.66077zm7.32634 2.45979h-1.3553V6.69374q0-.82958-.0868-1.07074-.0868-.24598-.28457-.38103-.19292-.13505-.46784-.13505-.35209 0-.63183.19293t-.38585.51125q-.10129.31833-.10129 1.17685v2.31992h-1.3553V4.18571h1.25884v.7524q.67042-.86816 1.6881-.86816.44855 0 .81993.16399.37138.15916.55948.40996.19293.2508.26528.56913.0772.31833.0772.91158zm6.03374 0h-1.3553V6.69374q0-.82958-.0868-1.07074-.0868-.24598-.28456-.38103-.19293-.13505-.46785-.13505-.35208 0-.63183.19293-.27974.19293-.38585.51125-.10128.31833-.10128 1.17685v2.31992h-1.3553V4.18571h1.25883v.7524q.67042-.86816 1.6881-.86816.44855 0 .81993.16399.37139.15916.55949.40996.19292.2508.26527.56913.0772.31833.0772.91158zm1.37459-5.8167V2.23716h1.3553v1.25401zm0 5.8167V4.18571h1.3553v5.12216zm7.40352 0h-1.3553V6.69374q0-.82958-.0868-1.07074-.0868-.24598-.28456-.38103-.19293-.13505-.46785-.13505-.35209 0-.63183.19293t-.38585.51125q-.10129.31833-.10129 1.17685v2.31992h-1.3553V4.18571h1.25884v.7524q.67042-.86816 1.6881-.86816.44855 0 .81993.16399.37138.15916.55949.40996.19292.2508.26527.56913.0772.31833.0772.91158zm1.24919.33763 1.54822.1881q.0386.2701.17846.37138.19292.1447.60771.1447.53055 0 .79582-.15917.17846-.10611.2701-.34244.0627-.16881.0627-.62219V8.4783q-.60772.82957-1.53376.82957-1.03215 0-1.63504-.87298-.47267-.68971-.47267-1.71704 0-1.28778.61736-1.96784.62219-.68006 1.5434-.68006.95016 0 1.56752.8344v-.71864h1.26849v4.59644q0 .90675-.14952 1.3553-.14952.44856-.41961.70418-.2701.25563-.72347.40032-.44855.1447-1.13826.1447-1.30225 0-1.84726-.44856-.54502-.44372-.54502-1.1286 0-.06753.005-.164zm1.2106-3.00482q0 .81511.31351 1.19614.31832.3762.78134.3762.49679 0 .83923-.38585.34244-.39067.34244-1.15273 0-.79581-.32797-1.18166-.32797-.38586-.82958-.38586-.48714 0-.80546.38103-.31351.3762-.31351 1.15273z" style="font-style:normal;font-variant:normal;font-weight:700;font-stretch:normal;font-size:9.87778px;font-family:Arial;-inkscape-font-specification:'Arial Bold';text-align:center;text-anchor:middle;fill:#fff;stroke-width:.264583" transform="translate(182.94048 28.87738)"/>
  </g>
  <g style="font-style:normal;font-variant:normal;font-weight:700;font-stretch:normal;font-size:9.87777px;line-height:1.25;font-family:Arial;-inkscape-font-specification:'Arial Bold';text-align:center;text-anchor:middle;fill:#fff;stroke-width:.264583">
    <path d="M65.95927 214.13686h-1.55305l-.61736-1.60611h-2.82635l-.5836 1.60611h-1.51446l2.754-7.07071h1.50965zm-2.6286-2.79742-.97428-2.62378-.95497 2.62378zm8.07392 2.79742h-1.25884v-.75241q-.3135.4389-.74276.65594-.42444.21222-.85852.21222-.88263 0-1.51446-.709-.627-.71382-.627-1.98713 0-1.30224.61253-1.97748.61254-.68006 1.54822-.68006.85852 0 1.48553.71382v-2.54661h1.3553zm-3.61735-2.67202q0 .81993.22669 1.18649.32797.53055.9164.53055.46783 0 .7958-.3955.32798-.40032.32798-1.19131 0-.88264-.31833-1.26849-.31832-.39067-.8151-.39067-.48232 0-.8103.38585-.32314.38103-.32314 1.14308zm4.85206-2.45015h1.2492v.69936q.67041-.81511 1.59645-.81511.49196 0 .8537.20257.36173.20257.59324.61254.33762-.40997.7283-.61254.39067-.20257.8344-.20257.5643 0 .95498.23151.39067.22668.5836.67041.13987.32797.13987 1.06109v3.27491h-1.3553v-2.92764q0-.76206-.13987-.98392-.1881-.28939-.57878-.28939-.28456 0-.53537.17363-.2508.17364-.36173.51125-.11093.3328-.11093 1.05627v2.4598h-1.3553v-2.80707q0-.74758-.07235-.96462t-.22669-.32315q-.14952-.10611-.40997-.10611-.3135 0-.5643.16881t-.36174.48714q-.1061.31832-.1061 1.05626v2.48874h-1.3553zm8.88421-.69453v-1.25401h1.3553v1.25401zm0 5.8167v-5.12217h1.3553v5.12217zm7.40351 0h-1.3553v-2.61414q0-.82958-.08682-1.07074-.08682-.24597-.28457-.38102-.19292-.13505-.46784-.13505-.35209 0-.63183.19292-.27974.19293-.38585.51126-.10129.31832-.10129 1.17684v2.31993h-1.3553v-5.12217h1.25884v.75241q.67042-.86816 1.6881-.86816.44855 0 .81993.16398.37138.15917.55948.40997.19293.2508.26527.56913.07717.31833.07717.91157zm1.37458-5.8167v-1.25401h1.3553v1.25401zm0 5.8167v-5.12217h1.3553v5.12217zm2.26688-1.46141 1.36012-.2074q.08682.3955.3521.60289.26527.20258.74275.20258.52573 0 .791-.19293.17845-.13505.17845-.36173 0-.15434-.09646-.25563-.10128-.0965-.45337-.17846-1.63986-.36173-2.07877-.66076-.60771-.41479-.60771-1.15273 0-.66559.52572-1.11897.52572-.45337 1.63022-.45337 1.05144 0 1.56269.34244t.70418 1.01286l-1.27813.23633q-.082-.29903-.3135-.4582-.2267-.15916-.65113-.15916-.53537 0-.76688.14952-.15434.1061-.15434.27491 0 .1447.13505.24598.18328.13505 1.26366.38103 1.0852.24598 1.51446.60289.42444.36174.42444 1.00804 0 .70417-.58842 1.2106-.58842.50643-1.74115.50643-1.04662 0-1.65916-.42443-.60771-.42444-.79582-1.15273zm8.3199-3.66076v1.08038h-.92604v2.0643q0 .62701.02412.73312.02893.10128.12057.16881.0965.0675.23151.0675.18811 0 .54502-.13022l.11575 1.05144q-.47266.20257-1.07073.20257-.36656 0-.66077-.12058-.2942-.1254-.43408-.31832-.13505-.19775-.1881-.53055-.04341-.23633-.04341-.95498v-2.23311h-.62218v-1.08038h.62218v-1.01768l1.36012-.79099v1.80867zm2.23793 5.12217h-1.3553v-5.12217h1.25884v.72829q.32315-.51607.57878-.68006.26045-.16398.58842-.16398.46302 0 .89228.25562l-.41961 1.18167q-.34245-.22186-.63666-.22186-.28456 0-.48231.15916-.19775.15434-.3135.56431-.11094.40996-.11094 1.71703zm3.55947-3.55947-1.2299-.22187q.2074-.74276.71383-1.09967.50643-.35691 1.50481-.35691.90675 0 1.35048.21704.44373.21222.62218.54501.18328.32797.18328 1.21061l-.0145 1.58198q0 .67524.0627.99839.0675.31833.24598.68489h-1.34083q-.053-.13505-.13022-.40032-.0338-.12058-.0482-.15917-.34727.33762-.74276.50643-.3955.16881-.84405.16881-.791 0-1.24919-.42926-.45338-.42926-.45338-1.0852 0-.43408.2074-.7717.20739-.34244.57877-.5209.37621-.18328 1.08038-.31833.95016-.17845 1.31672-.33279v-.13505q0-.39067-.19293-.55466-.19292-.16881-.72829-.16881-.36173 0-.56431.14469-.20257.13987-.32797.49679zm1.8135 1.09967q-.26045.0868-.82476.20739-.5643.12058-.73794.23634-.26527.1881-.26527.47749 0 .28456.21222.49196.21222.20739.54019.20739.36656 0 .69935-.24116.24598-.18327.32315-.44855.0531-.17363.0531-.66076zm5.01605-2.66237v1.08038h-.92604v2.0643q0 .62701.0241.73312.0289.10128.12058.16881.0965.0675.23151.0675.1881 0 .54501-.13022l.11576 1.05144q-.47267.20257-1.07074.20257-.36656 0-.66077-.12058-.29421-.1254-.43408-.31832-.13505-.19775-.1881-.53055-.0434-.23633-.0434-.95498v-2.23311h-.62218v-1.08038h.62218v-1.01768l1.36012-.79099v1.80867zm.94052-.69453v-1.25401h1.35529v1.25401zm0 5.8167v-5.12217h1.35529v5.12217zm2.43085-2.63343q0-.67524.3328-1.30707t.94051-.96463q.61254-.33279 1.36495-.33279 1.16237 0 1.90513.75723.74276.75241.74276 1.90513 0 1.16238-.7524 1.92926-.74759.76205-1.88585.76205-.70418 0-1.34565-.31833-.63665-.31832-.96945-.93086-.3328-.61736-.3328-1.49999zm1.38906.0723q0 .76206.36174 1.1672.36173.40514.89228.40514.53054 0 .88745-.40514.36174-.40514.36174-1.17684 0-.75241-.36174-1.15755-.35691-.40515-.88745-.40515-.53055 0-.89228.40515-.36174.40514-.36174 1.16719zm9.61732 2.56113h-1.3553v-2.61414q0-.82958-.0868-1.07074-.0868-.24597-.28457-.38102-.19292-.13505-.46784-.13505-.35209 0-.63183.19292-.27974.19293-.38585.51126-.10129.31832-.10129 1.17684v2.31993h-1.3553v-5.12217h1.25884v.75241q.67042-.86816 1.6881-.86816.44855 0 .81993.16398.37138.15917.55948.40997.19293.2508.26527.56913.0772.31833.0772.91157z" aria-label="Administration" style="font-style:normal;font-variant:normal;font-weight:700;font-stretch:normal;font-size:9.87777px;font-family:Arial;-inkscape-font-specification:'Arial Bold';text-align:center;text-anchor:middle;fill:#fff;stroke-width:.264583" transform="translate(182.94048 28.87738)"/>
  </g>
  <g style="font-style:normal;font-variant:normal;font-weight:700;font-stretch:normal;font-size:9.87777px;line-height:1.25;font-family:Arial;-inkscape-font-specification:'Arial Bold';text-align:center;text-anchor:middle;fill:#fff;stroke-width:.264583">
    <path d="M79.40759 152.24892h-1.55305l-.61736-1.60611h-2.82635l-.5836 1.60611h-1.51447l2.75401-7.07071h1.50964zm-2.6286-2.79742-.97428-2.62378-.95498 2.62378zm4.67361 2.79742h-1.3553v-5.12217h1.25883v.7283q.32315-.51608.57878-.68007.26045-.16398.58842-.16398.46302 0 .89228.25562l-.41961 1.18167q-.34245-.22186-.63666-.22186-.28456 0-.48231.15916-.19775.15434-.3135.56431-.11093.40996-.11093 1.71703zm7.01283-3.6077-1.33601.24115q-.06752-.40032-.30868-.60289-.23634-.20257-.61736-.20257-.50643 0-.81029.35209-.29903.34726-.29903 1.1672 0 .91157.30385 1.28777.30868.3762.82476.3762.38585 0 .63183-.21704.24598-.22186.34726-.75723l1.33119.22669q-.2074.91639-.79582 1.38424-.58842.46784-1.57716.46784-1.12379 0-1.7942-.709-.6656-.709-.6656-1.96301 0-1.26849.67042-1.97266.67041-.709 1.8135-.709.93568 0 1.48552.40514.55466.40032.79582 1.22508zm2.3778-3.46301v2.59967q.65594-.76688 1.56752-.76688.46784 0 .84404.17363.3762.17363.56431.44373.19292.27009.26045.59807.07235.32797.07235 1.01768v3.00481h-1.3553v-2.70578q0-.80546-.07717-1.0225t-.27492-.34245q-.19292-.13022-.48713-.13022-.33762 0-.6029.16399-.26527.16398-.39067.49678-.12058.32797-.12058.97427v2.56591h-1.3553v-7.07071zm4.68326 1.25401v-1.25401h1.3553v1.25401zm0 5.8167v-5.12217h1.3553v5.12217zm4.15271 0-2.0643-5.12217h1.42283l.96462 2.61414.27974.87299q.11094-.3328.13988-.43891.0675-.21704.14469-.43408l.97427-2.61414h1.39389l-2.03536 5.12217zm5.09805-3.55947-1.2299-.22187q.2074-.74276.71383-1.09967.50642-.35691 1.50481-.35691.90675 0 1.35048.21704.44373.21222.62218.54501.18328.32797.18328 1.21061l-.0145 1.58198q0 .67524.0627.99839.0675.31833.24598.68489h-1.34083q-.053-.13505-.13022-.40032-.0338-.12058-.0482-.15917-.34727.33762-.74277.50643-.39549.16881-.84404.16881-.791 0-1.24919-.42926-.45338-.42926-.45338-1.0852 0-.43408.2074-.7717.20739-.34244.57877-.5209.37621-.18328 1.08038-.31833.95016-.17845 1.31672-.33279v-.13505q0-.39067-.19293-.55466-.19292-.16881-.72829-.16881-.36174 0-.56431.14469-.20257.13987-.32797.49679zm1.8135 1.09967q-.26045.0868-.82476.20739-.5643.12058-.73794.23634-.26527.1881-.26527.47749 0 .28456.21222.49196.21222.20739.54019.20739.36656 0 .69935-.24115.24598-.18328.32315-.44856.0531-.17363.0531-.66076zm2.66719 2.4598v-7.07071h1.3553v7.07071zM73.77176 162.2955l1.38906-.13505q.1254.69935.50643 1.02733.38585.32797 1.03697.32797.68971 0 1.03698-.28939.35208-.29421.35208-.68488 0-.25081-.14951-.42444-.1447-.17846-.51125-.30868-.2508-.0868-1.14309-.30868-1.1479-.28456-1.61092-.69935-.65112-.5836-.65112-1.42283 0-.54019.30385-1.00803.30868-.47267.88264-.71865.57877-.24598 1.39388-.24598 1.33118 0 2.0016.5836.67524.5836.709 1.55787l-1.42765.0627q-.09164-.54501-.3955-.78134-.29903-.24116-.90192-.24116-.62218 0-.97427.25563-.22669.16398-.22669.4389 0 .2508.21222.42926.2701.22669 1.3119.47267 1.04179.24598 1.53857.51125.5016.26045.78135.71864.28456.45338.28456 1.12379 0 .60772-.33762 1.13826-.33762.53055-.95498.791-.61736.25562-1.53858.25562-1.34083 0-2.05947-.61736-.71865-.62218-.85852-1.80867zm9.28934-2.82153v1.08038h-.92603v2.0643q0 .627.0241.73311.02895.10129.12059.16881.09646.0675.2315.0675.1881 0 .54502-.13023l.11576 1.05144q-.47267.20257-1.07074.20257-.36656 0-.66077-.12057-.2942-.1254-.43408-.31833-.13505-.19775-.1881-.53054-.04341-.23634-.04341-.95498v-2.23311h-.62219v-1.08038h.62219v-1.01768l1.36012-.791v1.80868zm.62702 2.48873q0-.67524.3328-1.30707.33279-.63183.9405-.96462.61254-.3328 1.36495-.3328 1.16237 0 1.90513.75723.74277.75241.74277 1.90514 0 1.16237-.75241 1.92925-.74759.76205-1.88585.76205-.70417 0-1.34565-.31832-.63665-.31833-.96945-.93087-.3328-.61736-.3328-1.49999zm1.38906.0724q0 .76205.36173 1.1672.36174.40514.89228.40514t.88746-.40514q.36173-.40515.36173-1.17685 0-.75241-.36173-1.15755-.35692-.40514-.88746-.40514t-.89228.40514q-.36173.40514-.36173 1.1672zm6.2556 2.56103h-1.3553v-5.12216h1.25883v.72829q.32315-.51608.57878-.68006.26045-.16399.58842-.16399.46302 0 .89228.25563l-.41961 1.18166q-.34244-.22186-.63665-.22186-.28457 0-.48232.15916-.19775.15434-.3135.56431-.11093.40996-.11093 1.71703zm3.55947-3.55947-1.2299-.22186q.2074-.74277.71382-1.09968.50643-.35691 1.50482-.35691.90675 0 1.35048.21704.44372.21222.62218.54501.18328.32798.18328 1.21061l-.01447 1.58199q0 .67524.0627.99839.06752.31832.24598.68488H96.9903q-.05305-.13505-.13023-.40032-.03376-.12058-.04823-.15916-.34726.33762-.74276.50643-.3955.1688-.84405.1688-.791 0-1.24919-.42925-.45337-.42926-.45337-1.08521 0-.43408.2074-.7717.20739-.34244.57877-.5209.3762-.18328 1.08038-.31832.95016-.17846 1.31671-.3328v-.13505q0-.39067-.19292-.55466-.19293-.16881-.7283-.16881-.36173 0-.5643.1447-.20257.13987-.32797.49678zm1.8135 1.09967q-.26045.0868-.82476.2074-.5643.12058-.73794.23633-.26527.1881-.26527.47749 0 .28457.21222.49196.21221.2074.54019.2074.36655 0 .69935-.24116.24598-.18328.32315-.44855.05306-.17364.05306-.66077zm2.54178 2.79742 1.54823.1881q.0386.2701.17845.37138.19293.1447.60772.1447.53054 0 .79582-.15917.17845-.10611.27009-.34244.0627-.16881.0627-.62218v-.74759q-.60771.82958-1.53375.82958-1.03215 0-1.63504-.87299-.47267-.6897-.47267-1.71703 0-1.28778.61736-1.96784.62218-.68006 1.5434-.68006.95016 0 1.56752.8344v-.71864h1.26848v4.59644q0 .90675-.14952 1.3553-.14951.44855-.41961.70418-.27009.25562-.72347.40031-.44855.1447-1.13826.1447-1.30224 0-1.84726-.44855-.54501-.44373-.54501-1.12861 0-.0675.0048-.16399zm1.21061-3.00481q0 .81511.3135 1.19613.31833.37621.78135.37621.49678 0 .83922-.38585.34245-.39067.34245-1.15273 0-.79582-.32798-1.18167-.32797-.38585-.82957-.38585-.48714 0-.80547.38103-.3135.3762-.3135 1.15273zm7.91476 1.03697 1.35047.22669q-.26045.74276-.82475 1.13343-.55949.38585-1.40353.38585-1.33601 0-1.97749-.87298-.50643-.69936-.50643-1.76527 0-1.2733.6656-1.99195.66559-.72347 1.68327-.72347 1.14308 0 1.80385.75723.66077.75241.63183 2.31028h-3.39548q.0145.60289.32797.94051.3135.3328.78134.3328.31833 0 .53537-.17364.21704-.17363.32798-.55948zm.0772-1.36977q-.0145-.58842-.30386-.89228-.28939-.30868-.70418-.30868-.44373 0-.73311.32315-.28939.32315-.28457.87781z" aria-label="Archival Storage" style="font-style:normal;font-variant:normal;font-weight:700;font-stretch:normal;font-size:9.87777px;font-family:Arial;-inkscape-font-specification:'Arial Bold';text-align:center;text-anchor:middle;fill:#fff;stroke-width:.264583" transform="translate(182.94048 28.87738)"/>
  </g>
  <g style="font-style:normal;font-variant:normal;font-weight:700;font-stretch:normal;font-size:9.87777px;line-height:1.25;font-family:Arial;-inkscape-font-specification:'Arial Bold';text-align:center;text-anchor:middle;fill:#fff;stroke-width:.264583">
    <path d="M-60.40516 116.71915v-7.07071h1.42764v7.07071zm7.43726 0h-1.3553v-2.61414q0-.82958-.08682-1.07073-.08682-.24598-.28456-.38103-.19293-.13505-.46785-.13505-.35209 0-.63183.19293-.27974.19292-.38585.51125-.10128.31832-.10128 1.17684v2.31993h-1.3553v-5.12217h1.25883v.75241q.67042-.86816 1.6881-.86816.44855 0 .81993.16398.37138.15917.55948.40997.19293.2508.26528.56913.07717.31833.07717.91157zm1.2492.33762 1.54822.1881q.03858.27009.17845.37138.19293.14469.60772.14469.53054 0 .79581-.15916.17846-.10611.2701-.34244.0627-.16881.0627-.62219v-.74758q-.60772.82958-1.53376.82958-1.03215 0-1.63504-.87299-.47266-.68971-.47266-1.71703 0-1.28778.61736-1.96784.62218-.68006 1.5434-.68006.95015 0 1.56752.8344v-.71865h1.26848v4.59645q0 .90674-.14952 1.3553-.14952.44855-.41961.70417-.2701.25563-.72347.40032-.44855.1447-1.13826.1447-1.30224 0-1.84726-.44856-.54501-.44372-.54501-1.12861 0-.0675.0048-.16398zm1.2106-3.00481q0 .8151.3135 1.19613.31833.37621.78135.37621.49678 0 .83922-.38585.34244-.39068.34244-1.15273 0-.79582-.32797-1.18167t-.82958-.38585q-.48713 0-.80546.38103-.3135.3762-.3135 1.15273zm7.91475 1.03697 1.35048.22669q-.26045.74276-.82475 1.13343-.55949.38585-1.40354.38585-1.336 0-1.97748-.87298-.50643-.69936-.50643-1.76527 0-1.27331.6656-1.99195.66559-.72347 1.68327-.72347 1.14308 0 1.80385.75723.66077.75241.63183 2.31028h-3.39549q.01447.60289.32798.94051.3135.33279.78134.33279.31833 0 .53537-.17363t.32797-.55948zm.07717-1.36977q-.01447-.58842-.30385-.89228-.2894-.30868-.70418-.30868-.44373 0-.73312.32315-.28938.32315-.28456.87781zm1.97267 1.53858 1.36012-.2074q.08682.3955.35209.60289.26527.20258.74276.20258.52572 0 .791-.19293.17845-.13505.17845-.36173 0-.15434-.09646-.25563-.10129-.0965-.45338-.17846-1.63986-.36173-2.07877-.66076-.60771-.41479-.60771-1.15273 0-.66559.52572-1.11897.52572-.45337 1.63022-.45337 1.05144 0 1.5627.34244.51124.34244.70417 1.01286l-1.27813.23633q-.08199-.29903-.3135-.4582-.22669-.15916-.65113-.15916-.53536 0-.76687.14952-.15434.10611-.15434.27492 0 .14469.13504.24597.18328.13505 1.26366.38103 1.0852.24598 1.51447.60289.42443.36174.42443 1.00804 0 .70417-.58842 1.2106-.58842.50643-1.74115.50643-1.04662 0-1.65916-.42443-.60771-.42444-.79581-1.15273zm8.31989-3.66076v1.08038h-.92604v2.0643q0 .62701.02412.73312.02894.10128.12058.16881.09646.0675.23151.0675.1881 0 .54502-.13022l.11575 1.05144q-.47267.20257-1.07073.20257-.36656 0-.66077-.12058-.29421-.1254-.43408-.31832-.13505-.19775-.1881-.53055-.04342-.23633-.04342-.95498v-2.23311h-.62218v-1.08038h.62218v-1.01768l1.36013-.79099v1.80867z" aria-label="Ingest" style="font-style:normal;font-variant:normal;font-weight:700;font-stretch:normal;font-size:9.87777px;font-family:Arial;-inkscape-font-specification:'Arial Bold';text-align:center;text-anchor:middle;fill:#fff;stroke-width:.264583" transform="translate(182.94048 28.87738)"/>
  </g>
  <g style="font-style:normal;font-variant:normal;font-weight:700;font-stretch:normal;font-size:9.87777px;line-height:1.25;font-family:Arial;-inkscape-font-specification:'Arial Bold';text-align:center;text-anchor:middle;fill:#fff;stroke-width:.264583">
    <path d="M90.88334 42.36868h2.60932q.88263 0 1.34565.13505.62218.18328 1.06591.65112.44373.46784.67524 1.1479.23151.67524.23151 1.6688 0 .873-.21704 1.50482-.26527.7717-.75723 1.2492-.37138.36173-1.00321.5643-.47267.14952-1.26366.14952h-2.68649zm1.42765 1.19614v4.68326h1.06591q.59807 0 .86334-.06753.34727-.08681.57395-.2942.23152-.2074.37621-.68007.1447-.47749.1447-1.29742t-.1447-1.25884q-.1447-.4389-.40514-.68488-.26045-.24598-.66077-.3328-.29904-.06752-1.17202-.06752zm6.7138 2.3151-1.2299-.22187q.2074-.74276.71382-1.09967.50643-.35691 1.50482-.35691.90675 0 1.35048.21704.44372.21222.62218.54501.18328.32798.18328 1.2106l-.0145 1.582q0 .67523.0627.99838.0675.31833.24598.68489h-1.34083q-.053-.13505-.13022-.40032-.0338-.12058-.0482-.15917-.34726.33762-.74276.50643-.3955.16881-.84405.16881-.79099 0-1.24919-.42926-.45337-.42925-.45337-1.0852 0-.43408.2074-.7717.20739-.34244.57877-.5209.3762-.18328 1.08038-.31833.95016-.17845 1.31671-.3328v-.13504q0-.39067-.19292-.55466-.19293-.1688-.7283-.1688-.36173 0-.5643.14469-.20257.13987-.32797.49678zm1.81349 1.09967q-.26044.08682-.82475.2074-.5643.12058-.73794.23633-.26527.1881-.26527.47749 0 .28456.21222.49196.21221.2074.54019.2074.36655 0 .69935-.24116.24598-.18328.32315-.44855.053-.17364.053-.66077zm5.01606-2.66237v1.08039h-.92604v2.0643q0 .627.0241.73311.0289.10129.12057.16881.0965.06752.23151.06752.18811 0 .54502-.13022l.11575 1.05144q-.47266.20257-1.07073.20257-.36656 0-.66077-.12058-.29421-.1254-.43408-.31832-.13505-.19775-.1881-.53055-.0434-.23633-.0434-.95498v-2.2331h-.62219v-1.08039h.62219v-1.01768l1.36012-.791v1.80868zm1.95337 1.5627-1.2299-.22187q.20739-.74276.71382-1.09967.50643-.35691 1.50482-.35691.90675 0 1.35048.21704.44372.21222.62218.54501.18328.32798.18328 1.2106l-.0145 1.582q0 .67523.0627.99838.0675.31833.24598.68489h-1.34083q-.053-.13505-.13023-.40032-.0338-.12058-.0482-.15917-.34726.33762-.74276.50643-.3955.16881-.84405.16881-.79099 0-1.24919-.42926-.45337-.42925-.45337-1.0852 0-.43408.20739-.7717.2074-.34244.57878-.5209.3762-.18328 1.08038-.31832.95016-.17846 1.31671-.3328v-.13505q0-.39067-.19292-.55466-.19293-.1688-.72829-.1688-.36174 0-.56431.14469-.20257.13987-.32797.49678zm1.81349 1.09967q-.26044.08682-.82475.2074t-.73794.23633q-.26527.1881-.26527.47749 0 .28456.21222.49196.21221.2074.54019.2074.36655 0 .69935-.24116.24598-.18328.32315-.44855.053-.17364.053-.66077zM71.38584 61.7866v-7.0707h2.13665l1.28295 4.82312 1.26848-4.82313h2.14147v7.07071h-1.32636v-5.5659l-1.40353 5.5659h-1.3746l-1.3987-5.5659v5.5659zm9.25076-3.55947-1.2299-.22186q.2074-.74276.71383-1.09968.50643-.3569 1.50482-.3569.90675 0 1.35047.21703.44373.21222.62219.54502.18328.32797.18328 1.2106l-.01447 1.58199q0 .67524.0627.99839.06752.31832.24597.68488h-1.34083q-.05305-.13505-.13022-.40032-.03376-.12058-.04823-.15916-.34726.33762-.74276.50643-.3955.1688-.84405.1688-.791 0-1.24919-.42925-.45337-.42926-.45337-1.0852 0-.43409.20739-.7717.2074-.34245.57878-.5209.3762-.18328 1.08038-.31833.95015-.17846 1.31671-.3328v-.13505q0-.39067-.19292-.55466-.19293-.1688-.7283-.1688-.36173 0-.5643.14469-.20257.13987-.32797.49678zm1.8135 1.09967q-.26045.08683-.82475.2074-.56431.12058-.73794.23633-.26527.1881-.26527.4775 0 .28456.21221.49195.21222.2074.5402.2074.36655 0 .69935-.24116.24598-.18328.32315-.44855.05305-.17363.05305-.66077zm7.32634 2.4598h-1.3553v-2.61414q0-.82957-.08682-1.07073-.08682-.24598-.28457-.38103-.19292-.13505-.46784-.13505-.35209 0-.63183.19293t-.38585.51125q-.10129.31833-.10129 1.17685v2.31992h-1.3553v-5.12216h1.25884v.7524q.67042-.86816 1.6881-.86816.44855 0 .81993.16399.37138.15916.55948.40996.19293.2508.26527.56913.07717.31833.07717.91157zm2.38744-3.55947-1.2299-.22186q.2074-.74276.71383-1.09968.50643-.3569 1.50482-.3569.90674 0 1.35047.21703.44373.21222.62219.54502.18328.32797.18328 1.2106l-.01447 1.58199q0 .67524.0627.99839.06752.31832.24598.68488h-1.34083q-.05305-.13505-.13023-.40032-.03376-.12058-.04823-.15916-.34726.33762-.74276.50643-.3955.1688-.84405.1688-.791 0-1.24919-.42925-.45337-.42926-.45337-1.0852 0-.43409.2074-.7717.20739-.34245.57877-.5209.3762-.18328 1.08038-.31833.95015-.17846 1.31671-.3328v-.13505q0-.39067-.19292-.55466-.19293-.1688-.7283-.1688-.36173 0-.5643.14469-.20257.13987-.32797.49678zm1.8135 1.09967q-.26045.08683-.82475.2074-.5643.12058-.73794.23633-.26527.1881-.26527.4775 0 .28456.21221.49195.21222.2074.5402.2074.36655 0 .69935-.24116.24598-.18328.32315-.44855.05305-.17363.05305-.66077zm2.54179 2.79742 1.54823.1881q.03858.2701.17845.37138.19293.1447.60772.1447.53054 0 .79581-.15917.17846-.1061.2701-.34244.0627-.1688.0627-.62218v-.74759q-.60772.82958-1.53376.82958-1.03215 0-1.63504-.87299-.47266-.6897-.47266-1.71703 0-1.28777.61736-1.96784.62218-.68006 1.5434-.68006.95015 0 1.56752.8344v-.71864h1.26848v4.59644q0 .90675-.14952 1.3553-.14951.44855-.41961.70418-.2701.25562-.72347.40032-.44855.14469-1.13826.14469-1.30225 0-1.84726-.44855-.54501-.44373-.54501-1.12861 0-.06752.0048-.16399zm1.2106-3.00481q0 .8151.31351 1.19614.31833.3762.78135.3762.49678 0 .83922-.38585.34245-.39067.34245-1.15273 0-.79581-.32798-1.18167-.32797-.38584-.82958-.38584-.48713 0-.80546.38102-.3135.3762-.3135 1.15273zm7.91476 1.03697 1.35048.22669q-.26045.74276-.82475 1.13344-.55949.38585-1.40354.38585-1.336 0-1.97748-.87299-.50643-.69935-.50643-1.76527 0-1.2733.66559-1.99195.6656-.72347 1.68328-.72347 1.14308 0 1.80385.75723.66077.75241.63183 2.31028h-3.39549q.0145.6029.32798.94051.3135.3328.78134.3328.31833 0 .53537-.17363.21704-.17364.32797-.55949zm.0772-1.36977q-.0145-.58842-.30385-.89228-.28939-.30867-.70418-.30867-.44373 0-.73312.32314-.28938.32315-.28456.87781zm2.34884-2.12217h1.24919v.69935q.67041-.8151 1.59646-.8151.49195 0 .85369.20256.36173.20257.59324.61254.33762-.40997.7283-.61254.39067-.20257.8344-.20257.5643 0 .95498.23151.39067.22669.5836.67042.13987.32797.13987 1.06109v3.2749h-1.3553v-2.92764q0-.76205-.13987-.98392-.1881-.28939-.57878-.28939-.28456 0-.53537.17364-.2508.17363-.36173.51125-.11093.3328-.11093 1.05627v2.4598h-1.3553v-2.80707q0-.74759-.0724-.96463t-.22669-.32315q-.14951-.1061-.40996-.1061-.31351 0-.56431.1688-.2508.16881-.36173.48714-.10611.31833-.10611 1.05627v2.48873h-1.3553zm11.85043 3.49194 1.35048.22669q-.26045.74276-.82476 1.13344-.55948.38585-1.40353.38585-1.33601 0-1.97748-.87299-.50643-.69935-.50643-1.76527 0-1.2733.66559-1.99195.66559-.72347 1.68327-.72347 1.14308 0 1.80385.75723.66077.75241.63183 2.31028h-3.39548q.0145.6029.32797.94051.31351.3328.78135.3328.31833 0 .53537-.17363.21704-.17364.32797-.55949zm.0772-1.36977q-.0145-.58842-.30386-.89228-.28938-.30867-.70417-.30867-.44373 0-.73312.32314-.28939.32315-.28456.87781zm7.10926 2.99999h-1.3553v-2.61414q0-.82957-.0868-1.07073-.0868-.24598-.28457-.38103-.19292-.13505-.46784-.13505-.35209 0-.63183.19293t-.38585.51125q-.10129.31833-.10129 1.17685v2.31992h-1.3553v-5.12216h1.25884v.7524q.67042-.86816 1.6881-.86816.44855 0 .81993.16399.37138.15916.55948.40996.19293.2508.26527.56913.0772.31833.0772.91157zm3.72346-5.12216v1.08038h-.92604v2.0643q0 .627.0241.73311.0289.10129.12058.16881.0965.06752.23151.06752.1881 0 .54502-.13022l.11575 1.05144q-.47267.20257-1.07073.20257-.36656 0-.66077-.12058-.29421-.1254-.43408-.31832-.13505-.19775-.18811-.53055-.0434-.23633-.0434-.95498v-2.2331h-.62218v-1.08039h.62218v-1.01768l1.36013-.791v1.80868z" aria-label="Data Management" style="font-style:normal;font-variant:normal;font-weight:700;font-stretch:normal;font-size:9.87777px;font-family:Arial;-inkscape-font-specification:'Arial Bold';text-align:center;text-anchor:middle;fill:#fff;stroke-width:.264583" transform="translate(182.94048 28.87738)"/>
  </g>
  <g style="font-style:normal;font-variant:normal;font-weight:700;font-stretch:normal;font-size:9.87777px;line-height:1.25;font-family:Arial;-inkscape-font-specification:'Arial Bold';text-align:center;text-anchor:middle;fill:#fff;stroke-width:.264583">
    <path d="M248.34864 116.55389h-1.55305l-.61736-1.60611h-2.82635l-.5836 1.60611h-1.51447l2.75401-7.07071h1.50964zm-2.62861-2.79742-.97427-2.62378-.95498 2.62378zm7.84241-.81028-1.336.24115q-.0675-.40032-.30868-.60289-.23634-.20257-.61737-.20257-.50642 0-.81028.35209-.29904.34726-.29904 1.16719 0 .91158.30386 1.28778.30868.3762.82476.3762.38585 0 .63183-.21704.24598-.22186.34726-.75723l1.33119.22669q-.2074.91639-.79582 1.38424-.58842.46784-1.57716.46784-1.12379 0-1.79421-.709-.66559-.709-.66559-1.96301 0-1.26849.67042-1.97266.67041-.709 1.81349-.709.93569 0 1.48553.40514.55466.40032.79581 1.22508zm5.49355 0-1.33601.24115q-.0675-.40032-.30868-.60289-.23633-.20257-.61736-.20257-.50643 0-.81029.35209-.29903.34726-.29903 1.16719 0 .91158.30386 1.28778.30868.3762.82475.3762.38585 0 .63183-.21704.24598-.22186.34727-.75723l1.33118.22669q-.20739.91639-.79581 1.38424-.58843.46784-1.57717.46784-1.12379 0-1.7942-.709-.66559-.709-.66559-1.96301 0-1.26849.67041-1.97266.67042-.709 1.8135-.709.93569 0 1.48552.40514.55466.40032.79582 1.22508zm3.99355 1.97748 1.35047.22669q-.26044.74276-.82475 1.13343-.55948.38585-1.40353.38585-1.33601 0-1.97748-.87299-.50643-.69935-.50643-1.76526 0-1.27331.66559-1.99195.66559-.72347 1.68327-.72347 1.14308 0 1.80385.75723.66077.75241.63183 2.31028h-3.39548q.0145.60289.32797.94051.3135.33279.78135.33279.31832 0 .53537-.17363.21704-.17363.32797-.55948zm.0772-1.36977q-.0145-.58842-.30386-.89228-.28939-.30868-.70418-.30868-.44372 0-.73311.32315-.28939.32315-.28457.87781zm1.97263 1.53858 1.36012-.2074q.0868.3955.35209.60289.26527.20258.74276.20258.52572 0 .791-.19293.17845-.13505.17845-.36173 0-.15434-.0965-.25563-.10129-.0965-.45338-.17846-1.63986-.36173-2.07876-.66076-.60772-.41479-.60772-1.15273 0-.66559.52572-1.11897.52572-.45337 1.63022-.45337 1.05144 0 1.56269.34244.51126.34244.70418 1.01286l-1.27813.23633q-.082-.29903-.3135-.4582-.22669-.15916-.65112-.15916-.53537 0-.76688.14952-.15434.10611-.15434.27491 0 .1447.13505.24598.18327.13505 1.26366.38103 1.0852.24598 1.51446.60289.42443.36174.42443 1.00804 0 .70417-.58842 1.2106-.58842.50643-1.74115.50643-1.04662 0-1.65915-.42443-.60772-.42444-.79582-1.15273zm5.49354 0 1.36013-.2074q.0868.3955.35209.60289.26527.20258.74276.20258.52572 0 .79099-.19293.17846-.13505.17846-.36173 0-.15434-.0965-.25563-.10128-.0965-.45337-.17846-1.63986-.36173-2.07877-.66076-.60771-.41479-.60771-1.15273 0-.66559.52572-1.11897.52572-.45337 1.63022-.45337 1.05144 0 1.56269.34244t.70418 1.01286l-1.27813.23633q-.082-.29903-.31351-.4582-.22668-.15916-.65112-.15916-.53537 0-.76688.14952-.15434.10611-.15434.27491 0 .1447.13505.24598.18328.13505 1.26366.38103 1.08521.24598 1.51446.60289.42444.36174.42444 1.00804 0 .70417-.58842 1.2106-.58842.50643-1.74115.50643-1.04662 0-1.65916-.42443-.60771-.42444-.79582-1.15273z" aria-label="Access" style="font-style:normal;font-variant:normal;font-weight:700;font-stretch:normal;font-size:9.87777px;font-family:Arial;-inkscape-font-specification:'Arial Bold';text-align:center;text-anchor:middle;fill:#fff;stroke-width:.264583" transform="translate(182.94048 28.87738)"/>
  </g>
  <g style="font-size:8.46667px;line-height:1.25;font-family:Arial;-inkscape-font-specification:Arial;text-align:center;text-anchor:middle;stroke-width:.264583">
    <path d="M312.38556 82.11077q.45062.32246.97978.51263l-.45062.86403q-.27698-.08268-.54157-.22738-.0579-.02894-.81442-.53743-.59531.26045-1.31878.26045-1.39733 0-2.19108-.8227-.78962-.82268-.78962-2.31096 0-1.48415.79375-2.30684.79375-.82682 2.15388-.82682 1.34772 0 2.13734.82682.78961.82269.78961 2.30684 0 .78548-.21911 1.3808-.16536.45475-.52916.88056zm-.98392-.6904q.23564-.27698.3514-.66973.11989-.39274.11989-.90123 0-1.05007-.46302-1.56683-.46303-.5209-1.2113-.5209-.74828 0-1.21543.5209-.46302.5209-.46302 1.56683 0 1.06247.46302 1.59163.46715.52504 1.17822.52504.26459 0 .50023-.08683-.37207-.2439-.75654-.38033l.34313-.69867q.60358.2067 1.15342.62012zm5.57279 1.45935v-.65733q-.23978.3514-.63252.55397-.38861.20257-.82269.20257-.44235 0-.79375-.1943-.3514-.1943-.5085-.5457-.1571-.3514-.1571-.97152v-2.77813h1.16169v2.01745q0 .92604.062 1.13688.0661.20671.23565.33073.1695.1199.42995.1199.29765 0 .5333-.16124.23564-.16536.32246-.40514.0868-.24391.0868-1.1865v-1.85208h1.16169v4.39044zm4.82451-1.39734 1.15755.1943q-.22324.63666-.70693.97152-.47956.33073-1.20303.33073-1.14515 0-1.69499-.74827-.43408-.59945-.43408-1.51309 0-1.0914.57051-1.70739.57051-.62012 1.44281-.62012.97978 0 1.54616.64906.56637.64492.54156 1.98024h-2.91041q.0124.51677.28112.80616.26871.28525.66972.28525.27286 0 .45889-.14883.18604-.14883.28112-.47956zm.0661-1.17409q-.0124-.50436-.26045-.7648-.24805-.26459-.60358-.26459-.38034 0-.62839.27699-.24805.27698-.24391.7524zm3.21225 2.57143h-1.16168v-4.39044h1.079v.62426q.27699-.44236.4961-.58292.22324-.14055.50436-.14055.39687 0 .76481.2191l-.35967 1.01286q-.29352-.19017-.5457-.19017-.24392 0-.41341.13643-.1695.13229-.26872.48369-.0951.3514-.0951 1.47175zm2.18282-4.98575V76.8191h1.16168v1.07487zm0 4.98574v-4.39043h1.16168v4.39043zm4.89479-1.39733 1.15755.1943q-.22324.63666-.70693.97152-.47956.33073-1.20303.33073-1.14515 0-1.69499-.74827-.43408-.59945-.43408-1.51309 0-1.0914.57051-1.70739.57051-.62012 1.44281-.62012.97978 0 1.54616.64906.56637.64492.54157 1.98024h-2.91042q.0124.51677.28112.80616.26872.28525.66972.28525.27286 0 .45889-.14883.18604-.14883.28112-.47956zm.0661-1.17409q-.0124-.50436-.26045-.7648-.24805-.26459-.60358-.26459-.38034 0-.62839.27699-.24805.27698-.24391.7524zm1.6909 1.31879 1.16582-.17777q.0744.339.30179.51676.22738.17364.63665.17364.45062 0 .678-.16537.15296-.11575.15296-.31006 0-.13229-.0827-.2191-.0868-.08268-.38861-.15297-1.4056-.31005-1.7818-.56637-.5209-.35553-.5209-.98805 0-.57051.45062-.95912.45062-.3886 1.39733-.3886.90124 0 1.33945.29352.43822.29352.60358.86816l-1.09554.20257q-.0703-.25631-.26871-.39274-.19431-.13642-.55811-.13642-.45889 0-.65732.12815-.1323.09095-.1323.23565 0 .12402.11576.21084.1571.11575 1.08314.3266.93017.21083 1.29811.51676.3638.31006.3638.86403 0 .60358-.50436 1.03766t-1.49242.43408q-.8971 0-1.42213-.3638-.5209-.3638-.68213-.98805z" aria-label="Queries" style="font-style:normal;font-variant:normal;font-weight:700;font-stretch:normal;font-size:8.46667px;font-family:Arial;-inkscape-font-specification:'Arial Bold';text-align:center;text-anchor:middle;stroke-width:.264583" transform="translate(182.94048 28.87738)"/>
  </g>
  <g aria-label="Query responses" style="font-size:8.46667px;line-height:1.25;font-family:Arial;-inkscape-font-specification:Arial;text-align:center;text-anchor:middle;stroke-width:.264583">
    <path d="M293.94147 100.92872q.41307.29559.89813.46991l-.41306.79202q-.25391-.0758-.49644-.20842-.053-.0265-.74655-.49265-.54571.23874-1.20889.23874-1.28088 0-2.00849-.75413-.72381-.75413-.72381-2.11839 0-1.36047.7276-2.1146.72761-.75792 1.97439-.75792 1.23541 0 1.95922.75792.72382.75413.72382 2.1146 0 .72003-.20085 1.26573-.15159.41686-.48507.80719zm-.90193-.63287q.21601-.2539.32212-.61391.1099-.36002.1099-.82614 0-.96256-.42444-1.43626-.42443-.47749-1.11035-.47749t-1.11415.4775q-.42443.47748-.42443 1.43625 0 .97393.42443 1.459.42823.48128 1.08004.48128.24254 0 .45854-.0796-.34106-.22359-.69349-.34864l.31453-.64045q.55329.18948 1.0573.56844zm5.10839 1.33773v-.60254q-.2198.32211-.57981.5078-.35622.18569-.75413.18569-.40549 0-.72761-.17811-.32211-.17811-.46612-.50023-.144-.32211-.144-.89055v-2.54662h1.06488v1.84933q0 .84887.0568 1.04214.0606.18948.21601.30317.15537.1099.39412.1099.27285 0 .48886-.1478.216-.15158.29559-.37138.0796-.22358.0796-1.08761v-1.69775h1.06488v4.02456zm4.42247-1.28088 1.06109.17811q-.20464.5836-.64802.89056-.4396.30316-1.10278.30316-1.04972 0-1.55374-.68591-.39791-.5495-.39791-1.387 0-1.00046.52297-1.5651.52296-.56845 1.32257-.56845.89814 0 1.41731.59497.51918.59118.49644 1.81522h-2.66788q.0114.4737.25769.73897.24633.26149.61392.26149.25011 0 .42065-.13643.17053-.13642.25769-.43959zm.0606-1.07625q-.0114-.46233-.23874-.70108-.22738-.24253-.55329-.24253-.34864 0-.57602.2539-.22737.2539-.22358.6897zm2.94455 2.35713h-1.06488v-4.02456h.98909v.57223q.25391-.40548.45475-.53433.20464-.12885.46234-.12885.3638 0 .70107.20085l-.32969.92846q-.26906-.17433-.50023-.17433-.22359 0-.37896.12506-.15537.12127-.24633.44338-.0872.32212-.0872 1.3491z" style="font-style:normal;font-variant:normal;font-weight:700;font-stretch:normal;font-size:7.76111px;font-family:Arial;-inkscape-font-specification:'Arial Bold';text-align:center;text-anchor:middle;stroke-width:.264583" transform="translate(182.94048 28.87738)"/>
    <path d="M307.07245 97.60902h1.13309l.96256 2.85736.93982-2.85736h1.10278l-1.42111 3.87298-.2539.70108q-.14021.35243-.26906.53812-.12506.18569-.2918.29938-.16295.11748-.40549.1819-.23874.0644-.54191.0644-.30696 0-.60255-.0644l-.0947-.83371q.25011.0493.45096.0493.37139 0 .5495-.2198.17811-.216.27285-.55328zm7.99606 4.02456h-1.06488v-4.02456h.98909v.57223q.2539-.40548.45475-.53433.20464-.12885.46234-.12885.3638 0 .70107.20085l-.32969.92846q-.26906-.17433-.50023-.17433-.22359 0-.37896.12506-.15538.12127-.24633.44338-.0872.32212-.0872 1.3491zm4.33152-1.28088 1.06109.17811q-.20464.5836-.64802.89056-.4396.30316-1.10278.30316-1.04972 0-1.55373-.68591-.39791-.5495-.39791-1.387 0-1.00046.52296-1.5651.52297-.56845 1.32257-.56845.89814 0 1.41732.59497.51917.59118.49644 1.81522h-2.66789q.0114.4737.2577.73897.24632.26149.61391.26149.25012 0 .42065-.13643.17053-.13642.25769-.43959zm.0606-1.07625q-.0114-.46233-.23875-.70108-.22738-.24253-.55328-.24253-.34865 0-.57602.2539-.22738.2539-.22359.6897zm1.54998 1.20888 1.06867-.16295q.0682.31075.27664.4737.20843.15916.5836.15916.41307 0 .6215-.15158.14021-.10611.14021-.28422 0-.12127-.0758-.20085-.0796-.0758-.35622-.14022-1.28847-.28421-1.63332-.51917-.47749-.3259-.47749-.90572 0-.52296.41306-.87918.41307-.35623 1.28089-.35623.82613 0 1.22783.26907.4017.26906.55328.79581l-1.00424.1857q-.0644-.23496-.24632-.36002-.17812-.12506-.5116-.12506-.42065 0-.60255.11748-.12127.08337-.12127.216 0 .1137.10611.19328.14401.1061.99288.29938.85266.19327 1.18994.4737.33348.28422.33348.79202 0 .55329-.46233.9512-.46233.3979-1.36805.3979-.82234 0-1.30362-.33348-.47749-.33349-.62529-.90572zm4.66122-2.87631h.99287v.59118q.19327-.30317.52297-.49265.32969-.18948.73139-.18948.70108 0 1.18994.5495.48886.54949.48886 1.531 0 1.00803-.49265 1.56889-.49265.55707-1.19373.55707-.33348 0-.60634-.13263-.26906-.13264-.56844-.45476v2.02744h-1.06487zm1.05351 1.94407q0 .67834.26906 1.00425.26906.32211.6556.32211.37138 0 .6177-.29559.24633-.29938.24633-.97772 0-.63286-.2539-.93982-.25391-.30696-.62908-.30696-.39033 0-.64802.30317-.25769.29938-.25769.89056zm3.47127.01137q0-.53055.26149-1.02698.26148-.49644.73897-.75793.48128-.26148 1.07246-.26148.91329 0 1.49689.59497.5836.59118.5836 1.4969 0 .91329-.59118 1.51584-.58739.59875-1.48173.59875-.55329 0-1.0573-.25011-.50023-.25011-.76171-.73139-.26149-.48507-.26149-1.17857zm1.09141.05684q0 .59876.28422.91709.28422.31832.70108.31832.41685 0 .69728-.31832.28422-.31833.28422-.92467 0-.59118-.28422-.9095-.28043-.31833-.69728-.31833-.41686 0-.70108.31832-.28422.31833-.28422.91709zm7.55647 2.01228h-1.06488v-2.05396q0-.65181-.0682-.8413-.0682-.19326-.22359-.29937-.15158-.10611-.36759-.10611-.27664 0-.49644.15158-.21979.15159-.30317.4017-.0796.25011-.0796.92466v1.8228h-1.06488v-4.02456h.98909v.59118q.52676-.68213 1.32636-.68213.35243 0 .64423.12885.2918.12506.4396.32212.15158.19705.20843.44717.0606.25011.0606.71623zm.70487-1.14825 1.06867-.16295q.0682.31075.27664.4737.20842.15916.5836.15916.41306 0 .62149-.15158.14022-.10611.14022-.28422 0-.12127-.0758-.20085-.0796-.0758-.35622-.14022-1.28846-.28421-1.63332-.51917-.47749-.3259-.47749-.90572 0-.52296.41307-.87918.41307-.35623 1.28088-.35623.82614 0 1.22784.26907.40169.26906.55328.79581l-1.00425.1857q-.0644-.23496-.24632-.36002-.17811-.12506-.5116-.12506-.42064 0-.60254.11748-.12127.08337-.12127.216 0 .1137.10611.19328.144.1061.99287.29938.85266.19327 1.18994.4737.33348.28422.33348.79202 0 .55329-.46233.9512-.46233.3979-1.36804.3979-.82235 0-1.30363-.33348-.47749-.33349-.62528-.90572zm7.02213-.13263 1.06109.17811q-.20463.5836-.64802.89056-.43959.30316-1.10277.30316-1.04972 0-1.55374-.68591-.39791-.5495-.39791-1.387 0-1.00046.52297-1.5651.52296-.56845 1.32257-.56845.89813 0 1.41731.59497.51918.59118.49644 1.81522h-2.66788q.0114.4737.25769.73897.24632.26149.61392.26149.25011 0 .42064-.13643.17053-.13642.25769-.43959zm.0606-1.07625q-.0114-.46233-.23875-.70108-.22737-.24253-.55328-.24253-.34864 0-.57602.2539-.22737.2539-.22359.6897zm1.54999 1.20888 1.06867-.16295q.0682.31075.27664.4737.20843.15916.5836.15916.41306 0 .62149-.15158.14022-.10611.14022-.28422 0-.12127-.0758-.20085-.0796-.0758-.35622-.14022-1.28846-.28421-1.63332-.51917-.47749-.3259-.47749-.90572 0-.52296.41307-.87918.41307-.35623 1.28089-.35623.82613 0 1.22783.26907.4017.26906.55328.79581l-1.00425.1857q-.0644-.23496-.24632-.36002-.17811-.12506-.5116-.12506-.42064 0-.60254.11748-.12127.08337-.12127.216 0 .1137.10611.19328.144.1061.99287.29938.85267.19327 1.18994.4737.33349.28422.33349.79202 0 .55329-.46234.9512-.46233.3979-1.36804.3979-.82235 0-1.30363-.33348-.47749-.33349-.62528-.90572z" style="font-style:normal;font-variant:normal;font-weight:700;font-stretch:normal;font-size:7.76111px;font-family:Arial;-inkscape-font-specification:'Arial Bold';text-align:center;text-anchor:middle;stroke-width:.264583" transform="translate(182.94048 28.87738)"/>
  </g>
  <g style="font-size:8.46667px;line-height:1.25;font-family:Arial;-inkscape-font-specification:Arial;text-align:center;text-anchor:middle;stroke-width:.264583">
    <path d="M307.38725 114.83322q0-.92605.27698-1.55443.20671-.46302.56224-.83096.35967-.36793.78548-.5457.56638-.23978 1.30638-.23978 1.33946 0 2.14148.83096.80615.83095.80615 2.31097 0 1.46761-.79788 2.29857-.79789.82682-2.13321.82682-1.35185 0-2.14974-.82269-.79788-.82682-.79788-2.27376zm1.2609-.0413q0 1.02939.47543 1.56269.47542.52917 1.20716.52917.73174 0 1.19889-.52503.47129-.52917.47129-1.58337 0-1.0418-.45889-1.55443-.45475-.51263-1.21129-.51263-.75655 0-1.21957.5209-.46302.51676-.46302 1.5627zm6.6766 3.0344h-1.16169v-4.39043h1.07901v.62425q.27698-.44235.49609-.58291.22324-.14056.50436-.14056.39688 0 .76481.2191l-.35966 1.01286q-.29353-.19017-.54571-.19017-.24391 0-.41341.13643-.1695.13229-.26872.48369-.0951.3514-.0951 1.47175zm6.20944 0h-1.079v-.64493q-.26872.37621-.63666.56224-.3638.18191-.73587.18191-.75654 0-1.29811-.60772-.53744-.61185-.53744-1.70326 0-1.11621.52504-1.69498.52503-.58291 1.32705-.58291.73587 0 1.27331.61185v-2.18282h1.16168zm-3.10058-2.2903q0 .7028.1943 1.01699.28112.45475.78548.45475.40101 0 .68213-.339.28112-.34313.28112-1.02112 0-.75655-.27285-1.08727-.27285-.33487-.69867-.33487-.41341 0-.69453.33073-.27698.3266-.27698.97979zm6.78821.89297 1.15756.1943q-.22325.63665-.70694.97152-.47955.33073-1.20302.33073-1.14516 0-1.69499-.74828-.43408-.59945-.43408-1.51309 0-1.0914.5705-1.70739.57051-.62011 1.44281-.62011.97979 0 1.54616.64905.56637.64492.54157 1.98024h-2.91042q.0124.51677.28112.80616.26872.28525.66973.28525.27285 0 .45888-.14883.18604-.14883.28112-.47955zm.0661-1.17409q-.0124-.50437-.26045-.76481-.24805-.26459-.60358-.26459-.38034 0-.62839.27699-.24804.27698-.24391.75241zm3.21226 2.57142h-1.16169v-4.39043h1.07901v.62425q.27698-.44235.49609-.58291.22324-.14056.50436-.14056.39688 0 .76481.2191l-.35966 1.01286q-.29353-.19017-.54571-.19017-.24391 0-.41341.13643-.1695.13229-.26872.48369-.0951.3514-.0951 1.47175zm1.77353-1.25264 1.16582-.17777q.0744.339.30179.51677.22738.17363.63666.17363.45062 0 .67799-.16536.15297-.11576.15297-.31006 0-.1323-.0827-.21911-.0868-.0827-.3886-.15296-1.4056-.31006-1.78181-.56638-.5209-.35553-.5209-.98805 0-.57051.45062-.95912.45062-.3886 1.39733-.3886.90124 0 1.33946.29352.43821.29352.60358.86816l-1.09554.20257q-.0703-.25631-.26872-.39274-.1943-.13642-.55811-.13642-.45888 0-.65732.12816-.13229.091-.13229.23564 0 .12402.11575.21084.1571.11576 1.08314.3266.93018.21084 1.29811.51676.36381.31006.36381.86403 0 .60358-.50437 1.03766-.50436.43409-1.49241.43409-.8971 0-1.42214-.36381-.5209-.3638-.68213-.98805z" aria-label="Orders" style="font-style:normal;font-variant:normal;font-weight:700;font-stretch:normal;font-size:8.46667px;font-family:Arial;-inkscape-font-specification:'Arial Bold';text-align:center;text-anchor:middle;stroke-width:.264583" transform="translate(182.94048 28.87738)"/>
  </g>
  <g style="font-size:9.17222px;line-height:1.25;font-family:Arial;-inkscape-font-specification:Arial;text-align:center;text-anchor:middle;stroke-width:.264583">
    <use xlink:href="#l" aria-label="Descriptive information" style="font-style:normal;font-variant:normal;font-weight:700;font-stretch:normal;font-size:9.17222px;font-family:Arial;-inkscape-font-specification:'Arial Bold';text-align:center;text-anchor:middle;stroke-width:.264583" transform="translate(-75.41157 27.93479)"/>
  </g>
</svg>
